<?xml version="1.0" encoding="UTF-8"?>
<!DOCTYPE svg PUBLIC "-//W3C//DTD SVG 1.1//EN" "http://www.w3.org/Graphics/SVG/1.1/DTD/svg11.dtd">
<!-- Creator: CorelDRAW X7 -->
<svg xmlns="http://www.w3.org/2000/svg" xml:space="preserve" width="58.1343mm" height="27.7527mm" version="1.1" style="shape-rendering:geometricPrecision; text-rendering:geometricPrecision; image-rendering:optimizeQuality; fill-rule:evenodd; clip-rule:evenodd"
viewBox="0 0 2185 1043"
 xmlns:xlink="http://www.w3.org/1999/xlink">
 <defs>
  <style type="text/css">
   <![CDATA[
    .fil12 {fill:#1F1919}
    .fil2 {fill:#36312E}
    .fil11 {fill:#393535}
    .fil5 {fill:#4A5258}
    .fil9 {fill:#93E57F}
    .fil4 {fill:#B27C8A}
    .fil8 {fill:#BFFFAA}
    .fil0 {fill:#C6924D}
    .fil3 {fill:#C6BEB5}
    .fil14 {fill:#D8AB77}
    .fil13 {fill:#EDBE84}
    .fil7 {fill:#F6A5A4}
    .fil6 {fill:#F7F7F5}
    .fil1 {fill:#F9ECDF}
    .fil10 {fill:#FCD8AE}
    .fil15 {fill:lime;fill-rule:nonzero}
   ]]>
  </style>
 </defs>
 <g id="Layer_x0020_1">
  <metadata id="CorelCorpID_0Corel-Layer"/>
  <g id="_2323241010816">
   <g>
    <path class="fil0" d="M165 870l7 10c-7,-53 53,-112 149,-70 23,10 61,39 84,33 30,-7 22,-43 74,-74 41,-24 84,-12 100,-25 12,-9 16,-30 16,-42 2,-44 -3,-98 37,-134 33,-30 74,-33 98,-11l-2 -10c-44,-57 -87,-82 -116,-150 -23,-54 -63,-135 -108,-170 -70,-53 -87,98 -96,135 -11,44 -46,28 -120,70 -32,18 -51,36 -77,59 -15,12 -22,17 -40,13 -12,-3 -26,-9 -38,-13 -24,-7 -138,-52 -133,25 4,51 58,131 90,176 62,86 35,97 75,178z"/>
    <path class="fil1" d="M165 870c-2,7 -1,10 4,17 1,1 9,8 13,13 27,31 28,46 69,73 17,12 33,20 52,30 20,11 34,14 54,20 18,6 37,12 53,15 12,2 16,0 29,2 42,7 89,2 131,-14l18 -8c-6,-4 -11,-6 -18,-8 -5,-2 -4,-1 -8,-2l-7 -3c-1,0 -2,-1 -3,-1 -17,-7 -38,6 -128,-58 -7,-5 -14,-10 -21,-14 -11,-6 -14,-2 -17,-15 14,-9 27,3 39,9 14,8 25,15 39,19 34,8 58,-19 80,-46 1,-9 -1,-5 -12,-8 -4,0 -5,-1 -9,-2l-9 -3c-1,0 -2,-1 -3,-1 -13,-7 -28,2 -48,-19 -51,-51 50,-118 96,-90l63 15c13,3 13,5 23,3 1,-12 2,-18 3,-27l11 -6 52 13c25,9 42,8 51,17 8,-15 5,-9 6,-27 2,-30 7,-46 6,-87 -1,-34 -11,-63 -26,-94l-20 -36 2 10c-24,-22 -65,-19 -98,11 -40,36 -35,90 -37,134 0,12 -4,33 -16,42 -16,13 -59,1 -100,25 -52,31 -44,67 -74,74 -23,6 -61,-23 -84,-33 -96,-42 -156,17 -149,70l-7 -10z"/>
    <path class="fil2" d="M552 1004c30,-7 51,-12 77,-35 46,-40 37,-119 33,-170 -1,-17 4,-27 -3,-38l-11 6c-1,9 -2,15 -3,27 -2,12 0,26 -1,38 -1,11 -6,24 -16,34 -21,20 -55,14 -84,33 -22,27 -46,54 -80,46 -14,-4 -25,-11 -39,-19 -12,-6 -25,-18 -39,-9 3,13 6,9 17,15 7,4 14,9 21,14 90,64 111,51 128,58z"/>
    <path class="fil1" d="M52 585c19,34 56,95 85,112 26,-11 36,-58 42,-82 11,-42 3,-57 -36,-79 -25,-13 -61,-33 -84,-34 -49,-4 -25,53 -7,83z"/>
    <path class="fil1" d="M465 262c-16,26 -19,80 -16,118 4,47 54,55 99,61 64,9 45,-24 13,-90 -14,-28 -68,-133 -96,-89z"/>
    <path class="fil3" d="M552 1004c1,0 2,1 3,1l7 3c4,1 3,0 8,2 7,2 12,4 18,8 29,-8 45,-17 71,-41 39,-35 64,-73 83,-119 6,-14 21,-52 20,-67 -9,-9 -26,-8 -51,-17l-52 -13c7,11 2,21 3,38 4,51 13,130 -33,170 -26,23 -47,28 -77,35z"/>
    <path class="fil2" d="M511 885c34,-8 43,-11 59,-42 9,-18 11,-43 -11,-67 -46,-28 -147,39 -96,90 20,21 35,12 48,19z"/>
    <path class="fil4" d="M509 952c7,15 27,28 39,32 14,5 34,3 51,-7 37,-22 41,-56 26,-93 -21,9 -48,11 -64,20 -11,6 -42,38 -52,48z"/>
    <path class="fil3" d="M511 885c1,0 2,1 3,1l9 3c4,1 5,2 9,2 11,3 13,-1 12,8 29,-19 63,-13 84,-33 10,-10 15,-23 16,-34 1,-12 -1,-26 1,-38 -10,2 -10,0 -23,-3l-63 -15c22,24 20,49 11,67 -16,31 -25,34 -59,42z"/>
    <path class="fil2" d="M503 666c16,-1 44,-15 54,-30 8,-11 16,-38 15,-51 -16,-10 -50,-7 -68,11 -14,13 -18,50 -1,70z"/>
    <path class="fil2" d="M276 755c11,8 40,17 59,12 14,-3 22,-10 33,-19 12,-9 20,-10 4,-27 -16,-15 -37,-24 -57,-17 -22,8 -41,34 -39,51z"/>
   </g>
   <g>
    <path class="fil5" d="M1665 252c-10,-1 -10,-4 -29,15 -81,78 -136,247 -141,254 -22,31 -84,86 -85,136 0,34 8,54 13,78l18 47c83,199 280,265 476,203 54,-17 70,-47 95,-111 15,-40 6,-31 35,-63 48,-54 110,-152 131,-217 9,-29 14,-49 -19,-58 -58,-18 -162,-10 -218,-3 -28,4 -16,10 -51,-14 -65,-44 -75,-23 -93,-70 -17,-45 -92,-197 -132,-197z"/>
    <path class="fil6" d="M1433 731c54,139 146,255 311,261 47,1 92,0 131,-6 -2,-11 -41,-54 -49,-64 -16,-22 -31,-45 -44,-66 -26,-45 -8,-125 -41,-145 -26,-16 -80,18 -108,28 -33,12 -82,7 -117,3l-62 -10c-9,-2 -13,-4 -21,-1z"/>
    <path class="fil5" d="M1621 880c8,-1 15,-2 23,-8 5,13 -2,9 10,28 10,24 58,53 97,17 -10,2 -35,18 -65,-5 -20,-14 -26,-37 -18,-57 75,0 76,-53 3,-75 -26,-8 -32,9 -31,33 1,20 5,14 12,32 -22,32 -72,19 -88,-12l-7 -28c-1,-1 -1,-2 -1,-3 -12,42 17,75 65,78z"/>
    <path class="fil7" d="M1978 597c28,28 47,77 56,115 0,1 0,1 0,2 0,1 1,2 1,3l1 5c24,-40 41,-72 51,-113 -25,-15 -88,-17 -109,-12z"/>
    <path class="fil7" d="M1597 445l-7 13c19,-1 44,-20 114,-12 3,0 7,0 10,0l8 0c-7,-20 -40,-71 -63,-84 -25,24 -43,49 -62,83z"/>
    <path class="fil8" d="M1659 676c-18,-2 -26,9 -56,-1 -10,10 -14,14 -25,14 -9,-10 -4,-10 -4,-25 -14,-18 -17,-24 -21,-41 -2,-12 -1,-36 -3,-43 -22,3 -28,14 -26,48 0,19 9,41 26,57 17,17 41,27 62,25 28,-1 37,0 47,-34z"/>
    <path class="fil8" d="M1862 830c-11,10 -9,12 -21,11 -8,-10 -4,-12 -3,-28 -6,-9 -11,-16 -16,-24 -2,-4 -5,-10 -6,-12 -4,-8 -1,-6 -6,-10l-19 20c12,18 5,28 26,51 14,16 37,26 57,28 39,5 94,-29 76,-56 -15,5 -30,16 -43,20 -14,5 -28,4 -45,0z"/>
    <path class="fil9" d="M1862 830c17,4 31,5 45,0 13,-4 28,-15 43,-20 1,-11 -6,-22 -15,-33 -9,-11 -21,-20 -36,-26 -6,32 -9,49 -37,79z"/>
    <path class="fil9" d="M1550 580c2,7 1,31 3,43 4,17 7,23 21,41 8,-16 12,-28 23,-43 8,-12 24,-22 28,-28 -22,-17 -60,-28 -75,-13z"/>
    <path class="fil9" d="M1810 767c5,4 2,2 6,10 1,2 4,8 6,12 5,8 10,15 16,24 14,-27 25,-48 47,-66 -16,-5 -24,-4 -39,0 -16,3 -23,5 -36,20z"/>
    <path class="fil9" d="M1603 675c30,10 38,-1 56,1 3,-28 -2,-52 -23,-72 -2,26 -16,47 -33,71z"/>
    <path class="fil7" d="M1621 880c-6,13 -10,28 2,36 13,7 21,-5 31,-16 -12,-19 -5,-15 -10,-28 -8,6 -15,7 -23,8z"/>
   </g>
   <g>
    <path class="fil10" d="M831 472l3 27 -1 1c0,4 4,21 5,24 8,27 14,43 27,68 12,23 35,55 55,72 52,45 111,69 186,66 81,-3 143,-43 181,-87 17,-21 31,-42 43,-68 10,-23 17,-46 23,-71 1,-6 3,-25 5,-28l1 -12c3,-38 1,-82 -12,-115 -6,-14 -15,-30 -23,-41 -6,-8 -21,-28 -30,-33 1,13 17,63 17,69 -36,3 -75,-1 -105,-14 -13,-5 -27,-13 -39,-20 -7,-4 -12,-8 -19,-12 -3,-3 -15,-11 -18,-12l36 64c-71,5 -96,2 -161,-23 -45,-17 -89,-42 -120,-67 -6,5 -21,30 -26,41 -8,13 -15,31 -19,47 -10,40 -10,82 -9,124z"/>
    <path class="fil11" d="M831 472c-1,-42 -1,-84 9,-124 4,-16 11,-34 19,-47 5,-11 20,-36 26,-41 31,25 75,50 120,67 65,25 90,28 161,23l-36 -64c3,1 15,9 18,12 7,4 12,8 19,12 12,7 26,15 39,20 30,13 69,17 105,14 0,-6 -16,-56 -17,-69 9,5 24,25 30,33 8,11 17,27 23,41 13,33 15,77 12,115l4 -3c1,-1 1,-1 2,-2 6,-3 12,-10 13,-10 2,-1 1,2 1,-1 1,-1 16,-20 22,-76 3,-29 5,-65 2,-95 -5,-64 -20,-101 -50,-145 -6,-10 -14,-19 -22,-28 -25,-28 -52,-45 -87,-59 -51,-21 -113,-29 -171,-26 -60,3 -108,15 -155,41 -12,6 -20,12 -30,20 -12,8 -28,24 -37,36 -45,55 -64,130 -65,205 0,42 4,89 23,124l11 14c3,4 8,11 11,13z"/>
    <path class="fil12" d="M784 437c2,1 1,1 3,4 1,2 1,4 2,6 2,3 3,6 5,10 6,12 28,39 40,42l-3 -27c-3,-2 -8,-9 -11,-13l-11 -14c-19,-35 -23,-82 -23,-124 1,-75 20,-150 65,-205 9,-12 25,-28 37,-36 10,-8 18,-14 30,-20 47,-26 95,-38 155,-41 58,-3 120,5 171,26 35,14 62,31 87,59 8,9 16,18 22,28 30,44 45,81 50,145 3,30 1,66 -2,95 -6,56 -21,75 -22,76 0,3 1,0 -1,1 -1,0 -7,7 -13,10 -1,1 -1,1 -2,2l-4 3 -1 12 -2 23c19,-7 40,-40 40,-41l9 -18c1,-2 0,-2 2,-2 0,0 0,-1 0,0l5 -18c2,-6 3,-12 4,-19 3,-14 5,-29 6,-44 8,-109 -7,-184 -75,-264 -7,-8 -13,-12 -19,-18 -16,-17 -45,-34 -67,-43 -12,-5 -22,-10 -35,-14 -43,-13 -82,-18 -129,-18 -54,0 -117,8 -165,31 -30,15 -63,35 -85,61 -21,25 -25,30 -41,57 -17,31 -29,76 -35,113 -6,45 -6,110 7,156 2,5 6,15 6,19z"/>
    <path class="fil13" d="M836 574c2,13 29,56 39,68 70,91 194,133 309,92 53,-18 93,-49 127,-91 7,-9 15,-21 21,-32 10,-17 11,-23 18,-36 2,-6 5,-11 7,-17 1,-4 1,-4 4,-6 6,-2 13,-7 18,-10l8 -8c9,-11 15,-22 17,-38 2,-16 -2,-24 -7,-38l-1 0c0,1 -21,34 -40,41l2 -23c-2,3 -4,22 -5,28 -6,25 -13,48 -23,71 -12,26 -26,47 -43,68 -38,44 -100,84 -181,87 -75,3 -134,-21 -186,-66 -20,-17 -43,-49 -55,-72 -13,-25 -19,-41 -27,-68 -1,-3 -5,-20 -5,-24l1 -1c-12,-3 -34,-30 -40,-42 -1,0 -1,0 -2,1 0,1 -1,2 -1,2 -9,21 -7,47 6,66 13,19 25,22 29,25 2,1 1,1 2,4 2,5 5,15 8,19z"/>
    <path class="fil11" d="M1012 585c-8,2 -16,10 -11,21 7,14 44,33 62,39 41,13 76,-2 104,-20 7,-5 13,-10 18,-16 6,-7 3,-19 -4,-23 -10,-5 -17,2 -25,5 -9,3 -18,5 -28,6 -26,3 -66,3 -91,-5 -12,-4 -16,-9 -25,-7z"/>
    <path class="fil11" d="M951 436c-21,3 -38,22 -34,47 3,21 21,39 46,35 21,-3 38,-23 34,-48 -3,-20 -22,-38 -46,-34z"/>
    <path class="fil11" d="M1225 435c-21,3 -38,23 -35,48 2,21 21,39 46,35 20,-3 37,-22 34,-47 -3,-20 -21,-39 -45,-36z"/>
    <path class="fil11" d="M1219 374c-14,1 -26,5 -36,12 -31,19 -21,37 -8,37 9,0 36,-20 80,-8 7,2 11,4 17,7 14,6 25,-9 15,-22 -12,-16 -38,-29 -68,-26z"/>
    <path class="fil11" d="M950 374c-15,2 -26,6 -36,13 -31,20 -16,38 -3,36 5,-1 37,-21 79,-7 11,4 26,14 33,0 9,-17 -34,-47 -73,-42z"/>
    <path class="fil14" d="M1396 458l1 0c5,14 9,22 7,38 -2,16 -8,27 -17,38l-8 8c-5,3 -12,8 -18,10 -3,2 -3,2 -4,6 -2,6 -5,11 -7,17 14,-2 31,-12 38,-18 11,-8 19,-17 26,-31 13,-26 12,-58 -4,-84 -2,-2 -2,-2 -3,-4 -2,0 -1,0 -2,2l-9 18z"/>
    <path class="fil14" d="M836 574c-3,-4 -6,-14 -8,-19 -1,-3 0,-3 -2,-4 -4,-3 -16,-6 -29,-25 -13,-19 -15,-45 -6,-66 0,0 1,-1 1,-2 1,-1 1,-1 2,-1 -2,-4 -3,-7 -5,-10 -1,-2 -1,-4 -2,-6 -2,-3 -1,-3 -3,-4 0,0 -47,62 14,118 7,6 25,17 38,19z"/>
    <path class="fil14" d="M1063 519c-25,9 18,53 55,28 4,-3 10,-9 13,-14 3,-10 -5,-14 -13,-14 -8,0 -51,-1 -55,0z"/>
   </g>
   <path class="fil15" d="M929 909c-5,-6 -11,-10 -18,-13 -7,-3 -14,-5 -22,-5 -14,0 -25,5 -33,13 -8,9 -13,21 -13,36 0,15 5,27 13,36 8,9 20,13 34,13 9,0 16,-1 22,-4 7,-4 12,-8 17,-14l0 38c-6,4 -13,7 -20,8 -7,2 -14,3 -22,3 -23,0 -42,-7 -57,-22 -14,-15 -22,-34 -22,-57 0,-24 8,-43 23,-58 15,-14 35,-21 59,-21 8,0 15,0 21,2 7,1 13,4 18,7l0 38z"/>
   <path id="1" class="fil15" d="M1102 1014l-33 0 0 -19c-6,8 -13,15 -21,19 -8,4 -18,6 -28,6 -21,0 -37,-7 -49,-21 -12,-15 -18,-34 -18,-59 0,-23 6,-42 18,-57 12,-14 28,-21 48,-21 12,0 22,2 31,7 8,5 15,12 19,22l0 -24 33 0 0 147zm-32 -74c0,-15 -4,-27 -11,-36 -7,-8 -17,-13 -30,-13 -13,0 -23,5 -30,14 -7,8 -11,21 -11,36 0,16 4,28 11,36 7,9 17,13 30,13 12,0 22,-5 29,-14 8,-9 12,-21 12,-36z"/>
   <path id="2" class="fil15" d="M1183 890c3,-10 8,-17 14,-21 6,-5 13,-7 22,-7 5,0 10,0 14,1 5,1 9,3 14,5l-12 29c-3,-2 -6,-4 -10,-5 -3,-1 -7,-1 -11,-1 -11,0 -19,4 -24,13 -5,9 -7,24 -7,45l0 65 -34 0 0 -148 34 0 0 24z"/>
   <path id="3" class="fil15" d="M1408 945l-118 0c1,14 5,25 12,32 8,8 18,12 30,12 11,0 20,-2 27,-7 7,-4 14,-12 19,-22l28 16c-8,15 -18,26 -30,33 -13,7 -27,11 -43,11 -24,0 -43,-7 -57,-22 -14,-14 -21,-33 -21,-57 0,-23 7,-42 22,-57 14,-15 33,-22 56,-22 23,0 42,6 55,20 13,13 20,32 20,57l0 6zm-35 -22c-1,-11 -5,-19 -12,-25 -7,-5 -16,-8 -28,-8 -11,0 -20,3 -27,8 -6,6 -11,14 -14,25l81 0z"/>
  </g>
 </g>
</svg>
