<?xml version="1.0" encoding="UTF-8"?>
<!DOCTYPE svg PUBLIC "-//W3C//DTD SVG 1.1//EN" "http://www.w3.org/Graphics/SVG/1.1/DTD/svg11.dtd">
<!-- Creator: CorelDRAW X7 -->
<svg xmlns="http://www.w3.org/2000/svg" xml:space="preserve" width="58.1343mm" height="37.9374mm" version="1.1" style="shape-rendering:geometricPrecision; text-rendering:geometricPrecision; image-rendering:optimizeQuality; fill-rule:evenodd; clip-rule:evenodd"
viewBox="0 0 2185 1426"
 xmlns:xlink="http://www.w3.org/1999/xlink">
 <defs>
  <style type="text/css">
   <![CDATA[
    .str0 {stroke:#4EA64E;stroke-width:3.18287}
    .fil17 {fill:none;fill-rule:nonzero}
    .fil12 {fill:#1F1919}
    .fil2 {fill:#36312E}
    .fil11 {fill:#393535}
    .fil5 {fill:#4A5258}
    .fil9 {fill:#93E57F}
    .fil4 {fill:#B27C8A}
    .fil8 {fill:#BFFFAA}
    .fil0 {fill:#C6924D}
    .fil3 {fill:#C6BEB5}
    .fil14 {fill:#D8AB77}
    .fil13 {fill:#EDBE84}
    .fil7 {fill:#F6A5A4}
    .fil6 {fill:#F7F7F5}
    .fil1 {fill:#F9ECDF}
    .fil10 {fill:#FCD8AE}
    .fil16 {fill:#009A3D;fill-rule:nonzero}
    .fil15 {fill:lime;fill-rule:nonzero}
   ]]>
  </style>
 </defs>
 <g id="Layer_x0020_1">
  <metadata id="CorelCorpID_0Corel-Layer"/>
  <g id="_2323239885248">
   <g>
    <path class="fil0" d="M165 997l7 10c-7,-53 53,-112 149,-69 23,10 61,38 84,33 30,-7 22,-44 74,-75 41,-24 84,-12 100,-25 12,-9 16,-29 16,-42 2,-44 -3,-98 37,-134 33,-30 74,-33 98,-11l-2 -10c-44,-57 -87,-82 -116,-150 -23,-54 -63,-135 -108,-169 -70,-54 -87,97 -96,135 -11,43 -46,28 -120,69 -32,18 -51,37 -77,59 -15,12 -22,17 -40,13 -12,-2 -26,-8 -38,-12 -24,-8 -138,-53 -133,24 4,51 58,131 90,176 62,86 35,97 75,178z"/>
    <path class="fil1" d="M165 997c-2,7 -1,10 4,17 1,1 9,8 13,13 27,31 28,47 69,74 17,11 33,19 52,29 20,11 34,14 54,20 18,6 37,13 53,15 12,2 16,0 29,2 42,7 89,2 131,-14l18 -8c-6,-4 -11,-6 -18,-8 -5,-1 -4,-1 -8,-2l-7 -3c-1,0 -2,0 -3,-1 -17,-7 -38,7 -128,-58 -7,-5 -14,-10 -21,-13 -11,-6 -14,-3 -17,-15 14,-10 27,2 39,8 14,8 25,16 39,19 34,8 58,-19 80,-45 1,-10 -1,-6 -12,-8 -4,-1 -5,-1 -9,-2l-9 -4c-1,0 -2,0 -3,-1 -13,-7 -28,2 -48,-18 -51,-52 50,-119 96,-91l63 15c13,4 13,5 23,4 1,-13 2,-19 3,-28l11 -6 52 13c25,9 42,9 51,17 8,-15 5,-8 6,-27 2,-30 7,-46 6,-87 -1,-34 -11,-63 -26,-94l-20 -36 2 10c-24,-22 -65,-19 -98,11 -40,36 -35,90 -37,134 0,13 -4,33 -16,42 -16,13 -59,1 -100,25 -52,31 -44,68 -74,75 -23,5 -61,-23 -84,-33 -96,-43 -156,16 -149,69l-7 -10z"/>
    <path class="fil2" d="M552 1131c30,-7 51,-12 77,-34 46,-41 37,-119 33,-171 -1,-16 4,-26 -3,-38l-11 6c-1,9 -2,15 -3,28 -2,12 0,25 -1,37 -1,11 -6,25 -16,34 -21,21 -55,15 -84,34 -22,26 -46,53 -80,45 -14,-3 -25,-11 -39,-19 -12,-6 -25,-18 -39,-8 3,12 6,9 17,15 7,3 14,8 21,13 90,65 111,51 128,58z"/>
    <path class="fil1" d="M52 713c19,34 56,94 85,111 26,-11 36,-58 42,-82 11,-41 3,-57 -36,-79 -25,-13 -61,-32 -84,-34 -49,-4 -25,53 -7,84z"/>
    <path class="fil1" d="M465 389c-16,26 -19,80 -16,118 4,47 54,55 99,62 64,9 45,-25 13,-91 -14,-28 -68,-133 -96,-89z"/>
    <path class="fil3" d="M552 1131c1,1 2,1 3,1l7 3c4,1 3,1 8,2 7,2 12,4 18,8 29,-8 45,-16 71,-40 39,-35 64,-74 83,-120 6,-14 21,-52 20,-67 -9,-8 -26,-8 -51,-17l-52 -13c7,12 2,22 3,38 4,52 13,130 -33,171 -26,22 -47,27 -77,34z"/>
    <path class="fil2" d="M511 1012c34,-8 43,-11 59,-42 9,-18 11,-42 -11,-67 -46,-28 -147,39 -96,91 20,20 35,11 48,18z"/>
    <path class="fil4" d="M509 1079c7,15 27,28 39,32 14,5 34,3 51,-7 37,-22 41,-56 26,-93 -21,9 -48,11 -64,20 -11,6 -42,38 -52,48z"/>
    <path class="fil3" d="M511 1012c1,1 2,1 3,1l9 4c4,1 5,1 9,2 11,2 13,-2 12,8 29,-19 63,-13 84,-34 10,-9 15,-23 16,-34 1,-12 -1,-25 1,-37 -10,1 -10,0 -23,-4l-63 -15c22,25 20,49 11,67 -16,31 -25,34 -59,42z"/>
    <path class="fil2" d="M503 794c16,-2 44,-16 54,-30 8,-12 16,-39 15,-52 -16,-10 -50,-7 -68,11 -14,14 -18,50 -1,71z"/>
    <path class="fil2" d="M276 883c11,7 40,16 59,11 14,-3 22,-10 33,-18 12,-9 20,-11 4,-27 -16,-16 -37,-25 -57,-17 -22,8 -41,33 -39,51z"/>
   </g>
   <g>
    <path class="fil5" d="M1665 379c-10,0 -10,-4 -29,15 -81,78 -136,247 -141,255 -22,30 -84,86 -85,135 0,34 8,55 13,78l18 48c83,198 280,265 476,203 54,-18 70,-48 95,-111 15,-40 6,-31 35,-64 48,-54 110,-152 131,-217 9,-28 14,-48 -19,-58 -58,-18 -162,-10 -218,-2 -28,4 -16,9 -51,-14 -65,-45 -75,-24 -93,-71 -17,-45 -92,-196 -132,-197z"/>
    <path class="fil6" d="M1433 858c54,140 146,256 311,261 47,2 92,1 131,-6 -2,-11 -41,-53 -49,-64 -16,-21 -31,-44 -44,-65 -26,-46 -8,-125 -41,-145 -26,-16 -80,17 -108,27 -33,12 -82,8 -117,3l-62 -10c-9,-2 -13,-4 -21,-1z"/>
    <path class="fil5" d="M1621 1007c8,-1 15,-2 23,-8 5,14 -2,9 10,28 10,24 58,53 97,17 -10,3 -35,18 -65,-4 -20,-15 -26,-37 -18,-58 75,0 76,-53 3,-75 -26,-8 -32,9 -31,33 1,20 5,14 12,33 -22,31 -72,18 -88,-13l-7 -28c-1,0 -1,-2 -1,-2 -12,41 17,74 65,77z"/>
    <path class="fil7" d="M1978 724c28,29 47,77 56,115 0,1 0,2 0,2 0,1 1,2 1,3l1 5c24,-40 41,-72 51,-113 -25,-15 -88,-17 -109,-12z"/>
    <path class="fil7" d="M1597 572l-7 13c19,-1 44,-20 114,-12 3,0 7,1 10,1l8 -1c-7,-19 -40,-71 -63,-84 -25,25 -43,49 -62,83z"/>
    <path class="fil8" d="M1659 803c-18,-1 -26,9 -56,-1 -10,10 -14,15 -25,15 -9,-11 -4,-10 -4,-25 -14,-19 -17,-25 -21,-42 -2,-12 -1,-35 -3,-43 -22,3 -28,15 -26,49 0,18 9,40 26,56 17,17 41,27 62,26 28,-2 37,0 47,-35z"/>
    <path class="fil8" d="M1862 958c-11,10 -9,11 -21,10 -8,-10 -4,-12 -3,-27 -6,-10 -11,-17 -16,-25 -2,-4 -5,-10 -6,-12 -4,-8 -1,-5 -6,-10l-19 21c12,18 5,27 26,50 14,16 37,26 57,28 39,5 94,-29 76,-56 -15,5 -30,16 -43,21 -14,4 -28,3 -45,0z"/>
    <path class="fil9" d="M1862 958c17,3 31,4 45,0 13,-5 28,-16 43,-21 1,-11 -6,-21 -15,-33 -9,-11 -21,-20 -36,-26 -6,32 -9,49 -37,80z"/>
    <path class="fil9" d="M1550 707c2,8 1,31 3,43 4,17 7,23 21,42 8,-16 12,-28 23,-44 8,-12 24,-21 28,-28 -22,-17 -60,-28 -75,-13z"/>
    <path class="fil9" d="M1810 894c5,5 2,2 6,10 1,2 4,8 6,12 5,8 10,15 16,25 14,-28 25,-49 47,-67 -16,-4 -24,-4 -39,0 -16,4 -23,6 -36,20z"/>
    <path class="fil9" d="M1603 802c30,10 38,0 56,1 3,-28 -2,-52 -23,-72 -2,26 -16,48 -33,71z"/>
    <path class="fil7" d="M1621 1007c-6,13 -10,28 2,36 13,8 21,-5 31,-16 -12,-19 -5,-14 -10,-28 -8,6 -15,7 -23,8z"/>
   </g>
   <g>
    <path class="fil10" d="M831 472l3 27 -1 1c0,4 4,21 5,24 8,27 14,43 27,68 12,23 35,55 55,72 52,45 111,69 186,66 81,-3 143,-43 181,-87 17,-21 31,-42 43,-68 10,-23 17,-46 23,-71 1,-6 3,-25 5,-28l1 -12c3,-38 1,-82 -12,-115 -6,-14 -15,-30 -23,-41 -6,-8 -21,-28 -30,-33 1,13 17,63 17,69 -36,3 -75,-1 -105,-14 -13,-5 -27,-13 -39,-20 -7,-4 -12,-8 -19,-12 -3,-3 -15,-11 -18,-12l36 64c-71,5 -96,2 -161,-23 -45,-17 -89,-42 -120,-67 -6,5 -21,30 -26,41 -8,13 -15,31 -19,47 -10,40 -10,82 -9,124z"/>
    <path class="fil11" d="M831 472c-1,-42 -1,-84 9,-124 4,-16 11,-34 19,-47 5,-11 20,-36 26,-41 31,25 75,50 120,67 65,25 90,28 161,23l-36 -64c3,1 15,9 18,12 7,4 12,8 19,12 12,7 26,15 39,20 30,13 69,17 105,14 0,-6 -16,-56 -17,-69 9,5 24,25 30,33 8,11 17,27 23,41 13,33 15,77 12,115l4 -3c1,-1 1,-1 2,-2 6,-3 12,-10 13,-10 2,-1 1,2 1,-1 1,-1 16,-20 22,-76 3,-29 5,-65 2,-95 -5,-64 -20,-101 -50,-145 -6,-10 -14,-19 -22,-28 -25,-28 -52,-45 -87,-59 -51,-21 -113,-29 -171,-26 -60,3 -108,15 -155,41 -12,6 -20,12 -30,20 -12,8 -28,24 -37,36 -45,55 -64,130 -65,205 0,42 4,89 23,124l11 14c3,4 8,11 11,13z"/>
    <path class="fil12" d="M784 437c2,1 1,1 3,4 1,2 1,4 2,6 2,3 3,6 5,10 6,12 28,39 40,42l-3 -27c-3,-2 -8,-9 -11,-13l-11 -14c-19,-35 -23,-82 -23,-124 1,-75 20,-150 65,-205 9,-12 25,-28 37,-36 10,-8 18,-14 30,-20 47,-26 95,-38 155,-41 58,-3 120,5 171,26 35,14 62,31 87,59 8,9 16,18 22,28 30,44 45,81 50,145 3,30 1,66 -2,95 -6,56 -21,75 -22,76 0,3 1,0 -1,1 -1,0 -7,7 -13,10 -1,1 -1,1 -2,2l-4 3 -1 12 -2 23c19,-7 40,-40 40,-41l9 -18c1,-2 0,-2 2,-2 0,0 0,-1 0,0l5 -18c2,-6 3,-12 4,-19 3,-14 5,-29 6,-44 8,-109 -7,-184 -75,-264 -7,-8 -13,-12 -19,-18 -16,-17 -45,-34 -67,-43 -12,-5 -22,-10 -35,-14 -43,-13 -82,-18 -129,-18 -54,0 -117,8 -165,31 -30,15 -63,35 -85,61 -21,25 -25,30 -41,57 -17,31 -29,76 -35,113 -6,45 -6,110 7,156 2,5 6,15 6,19z"/>
    <path class="fil13" d="M836 574c2,13 29,56 39,68 70,91 194,133 309,92 53,-18 93,-49 127,-91 7,-9 15,-21 21,-32 10,-17 11,-23 18,-36 2,-6 5,-11 7,-17 1,-4 1,-4 4,-6 6,-2 13,-7 18,-10l8 -8c9,-11 15,-22 17,-38 2,-16 -2,-24 -7,-38l-1 0c0,1 -21,34 -40,41l2 -23c-2,3 -4,22 -5,28 -6,25 -13,48 -23,71 -12,26 -26,47 -43,68 -38,44 -100,84 -181,87 -75,3 -134,-21 -186,-66 -20,-17 -43,-49 -55,-72 -13,-25 -19,-41 -27,-68 -1,-3 -5,-20 -5,-24l1 -1c-12,-3 -34,-30 -40,-42 -1,0 -1,0 -2,1 0,1 -1,2 -1,2 -9,21 -7,47 6,66 13,19 25,22 29,25 2,1 1,1 2,4 2,5 5,15 8,19z"/>
    <path class="fil11" d="M1012 585c-8,2 -16,10 -11,21 7,14 44,33 62,39 41,13 76,-2 104,-20 7,-5 13,-10 18,-16 6,-7 3,-19 -4,-23 -10,-5 -17,2 -25,5 -9,3 -18,5 -28,6 -26,3 -66,3 -91,-5 -12,-4 -16,-9 -25,-7z"/>
    <path class="fil11" d="M951 436c-21,3 -38,22 -34,47 3,21 21,39 46,35 21,-3 38,-23 34,-48 -3,-20 -22,-38 -46,-34z"/>
    <path class="fil11" d="M1225 435c-21,3 -38,23 -35,48 2,21 21,39 46,35 20,-3 37,-22 34,-47 -3,-20 -21,-39 -45,-36z"/>
    <path class="fil11" d="M1219 374c-14,1 -26,5 -36,12 -31,19 -21,37 -8,37 9,0 36,-20 80,-8 7,2 11,4 17,7 14,6 25,-9 15,-22 -12,-16 -38,-29 -68,-26z"/>
    <path class="fil11" d="M950 374c-15,2 -26,6 -36,13 -31,20 -16,38 -3,36 5,-1 37,-21 79,-7 11,4 26,14 33,0 9,-17 -34,-47 -73,-42z"/>
    <path class="fil14" d="M1396 458l1 0c5,14 9,22 7,38 -2,16 -8,27 -17,38l-8 8c-5,3 -12,8 -18,10 -3,2 -3,2 -4,6 -2,6 -5,11 -7,17 14,-2 31,-12 38,-18 11,-8 19,-17 26,-31 13,-26 12,-58 -4,-84 -2,-2 -2,-2 -3,-4 -2,0 -1,0 -2,2l-9 18z"/>
    <path class="fil14" d="M836 574c-3,-4 -6,-14 -8,-19 -1,-3 0,-3 -2,-4 -4,-3 -16,-6 -29,-25 -13,-19 -15,-45 -6,-66 0,0 1,-1 1,-2 1,-1 1,-1 2,-1 -2,-4 -3,-7 -5,-10 -1,-2 -1,-4 -2,-6 -2,-3 -1,-3 -3,-4 0,0 -47,62 14,118 7,6 25,17 38,19z"/>
    <path class="fil14" d="M1063 519c-25,9 18,53 55,28 4,-3 10,-9 13,-14 3,-10 -5,-14 -13,-14 -8,0 -51,-1 -55,0z"/>
   </g>
   <path class="fil15" d="M954 878l6 0c14,0 24,-2 28,-4 5,-3 7,-9 7,-16 0,-8 -2,-14 -7,-17 -5,-3 -14,-5 -28,-5l-6 0 0 42zm-2 20l0 67 -23 0 0 -150 38 0c11,0 19,1 25,2 5,1 10,3 13,6 5,3 9,8 12,14 3,6 4,12 4,19 0,8 -1,14 -4,20 -3,6 -7,11 -12,14 -3,3 -8,5 -13,6 -6,1 -14,2 -25,2l-5 0 -10 0z"/>
   <path id="1" class="fil15" d="M1069 879l4 0c13,0 22,-1 26,-4 5,-3 7,-9 7,-16 0,-9 -2,-14 -7,-18 -5,-3 -13,-5 -26,-5l-4 0 0 43zm-2 19l0 67 -23 0 0 -150 34 0c11,0 19,1 24,2 6,1 11,4 15,7 4,3 8,8 11,14 2,5 4,12 4,18 0,13 -3,22 -9,29 -6,7 -15,11 -27,12l53 68 -28 0 -51 -67 -3 0z"/>
   <path id="2" class="fil15" d="M1296 891c0,-8 -2,-15 -4,-22 -3,-7 -7,-13 -13,-18 -5,-6 -11,-10 -18,-12 -6,-3 -14,-5 -21,-5 -8,0 -15,2 -22,4 -7,3 -13,7 -18,13 -5,5 -9,11 -12,18 -3,7 -4,14 -4,22 0,7 1,14 4,21 3,7 7,13 12,18 5,6 11,10 18,12 7,3 14,5 22,5 7,0 14,-2 21,-5 7,-2 13,-6 18,-12 6,-5 10,-11 13,-18 2,-7 4,-14 4,-21zm26 0c0,10 -2,20 -6,30 -4,9 -10,18 -18,25 -8,8 -17,13 -27,17 -10,4 -20,6 -31,6 -11,0 -22,-2 -32,-6 -10,-4 -19,-9 -27,-17 -7,-7 -13,-16 -17,-25 -4,-9 -7,-20 -7,-30 0,-11 3,-21 7,-31 4,-9 10,-18 17,-25 8,-8 17,-13 27,-17 10,-4 21,-6 32,-6 11,0 21,2 31,6 10,4 19,9 27,17 8,7 14,16 18,25 4,10 6,20 6,31z"/>
   <polygon id="3" class="fil15" points="929,1217 929,1067 954,1067 954,1195 1010,1195 1010,1217 "/>
   <polygon id="4" class="fil15" points="1031,1217 1031,1067 1056,1067 1056,1217 "/>
   <polygon id="5" class="fil15" points="1092,1217 1092,1067 1178,1067 1178,1088 1117,1088 1117,1125 1178,1125 1178,1147 1117,1147 1117,1217 "/>
   <polygon id="6" class="fil15" points="1205,1217 1205,1067 1291,1067 1291,1088 1230,1088 1230,1125 1291,1125 1291,1147 1230,1147 1230,1195 1291,1195 1291,1217 "/>
   <path class="fil16" d="M361 1323c0,-1 0,-2 0,-3 -1,0 -1,-1 -1,-1 -1,-1 -1,-1 -2,-1 -1,0 -2,-1 -3,-1 -1,0 -3,1 -6,1l0 -3c2,0 5,-1 7,-1 3,-1 5,-1 8,-1 3,-1 5,-1 8,-1 3,0 5,-1 8,-1 3,0 6,1 9,1 3,1 6,2 8,3 2,2 4,4 5,6 1,2 2,5 2,9 0,4 -1,8 -2,11 -2,3 -4,6 -6,8 -3,2 -6,4 -9,5 -4,1 -8,2 -12,2 -1,0 -2,0 -2,0 -1,-1 -1,-1 -1,-2l0 -1c0,0 0,0 0,0 4,0 7,-1 9,-1 2,-1 4,-2 6,-3 2,-1 3,-2 4,-4 1,-1 2,-3 2,-4 1,-2 1,-3 1,-5 0,-1 1,-3 1,-4 0,-3 -1,-6 -2,-8 -1,-2 -2,-4 -4,-5 -1,-1 -3,-2 -5,-3 -2,0 -5,-1 -7,-1 -1,0 -2,0 -4,0 -1,1 -2,1 -3,1 0,2 0,4 0,7 0,3 -1,6 -1,10 0,3 0,8 0,12 0,5 0,9 0,14 -1,5 -1,10 -1,15 0,5 0,10 0,15l-8 1 -1 0c0,-6 0,-12 1,-18 0,-6 0,-11 0,-17 0,-5 1,-11 1,-16 0,-5 0,-11 0,-16z"/>
   <path id="1" class="fil16" d="M416 1390l-1 0c0,-2 1,-4 1,-7 0,-2 0,-5 0,-7 0,-3 0,-5 0,-8 1,-3 1,-5 1,-7 0,-2 0,-4 0,-6 0,-2 0,-3 0,-4 0,-1 0,-2 0,-2 0,-1 0,-1 -1,-2 0,0 0,-1 -1,-1 0,0 -1,0 -1,0 -1,0 -1,0 -2,0 0,0 -1,0 -1,0 -1,0 -1,0 -2,1 0,0 -1,0 -2,0l0 -2c3,-2 6,-3 9,-3 2,-1 4,-1 5,-1 1,0 2,0 3,1 0,1 1,2 1,4 0,0 0,1 0,2 0,0 0,1 0,3 -1,1 -1,2 -1,4 0,1 0,3 0,5 0,2 0,4 -1,6 0,2 0,4 0,6l0 0c1,-5 2,-9 4,-13 1,-3 3,-7 5,-9 1,-3 3,-5 5,-7 2,-2 5,-2 7,-2 1,0 2,0 2,0 1,0 2,1 2,1 1,1 1,1 2,2 0,0 0,1 0,2 0,1 0,2 0,3 -1,1 -2,2 -3,2l0 0c-1,0 -2,-1 -3,-1 0,-1 -1,-1 -2,-1 -1,0 -2,0 -3,1 -1,0 -2,1 -3,1 -1,2 -2,3 -4,5 -1,2 -2,4 -3,6 -1,3 -1,5 -2,8 -1,2 -2,5 -2,7 -1,3 -1,5 -1,7 -1,2 -1,4 -1,5l-7 1z"/>
   <path id="2" class="fil16" d="M450 1370c0,-2 1,-4 1,-7 1,-2 1,-4 2,-7 1,-2 2,-4 4,-6 1,-2 3,-3 5,-5 1,-1 3,-2 6,-3 2,-1 4,-1 7,-1 3,0 5,0 8,1 2,2 4,3 5,5 2,2 3,5 4,7 1,3 1,5 1,8 0,2 0,4 -1,7 0,2 -1,4 -2,6 -1,3 -2,5 -3,7 -2,1 -3,3 -5,5 -2,1 -4,2 -6,3 -2,1 -5,1 -7,1 -3,0 -6,0 -8,-2 -3,-1 -4,-2 -6,-4 -1,-2 -3,-5 -3,-7 -1,-3 -2,-5 -2,-8zm9 -3c0,1 0,3 0,5 0,1 1,3 1,4 1,2 1,3 2,4 1,1 2,3 3,3 1,1 2,2 3,3 1,0 3,1 4,1 2,0 3,-1 5,-2 1,0 2,-1 3,-2 1,-2 2,-3 2,-4 1,-2 1,-3 2,-5 0,-2 0,-3 1,-5 0,-1 0,-3 0,-4 0,-2 0,-3 -1,-5 0,-1 0,-3 -1,-4 0,-2 -1,-3 -2,-4 0,-2 -1,-3 -2,-4 -1,-1 -2,-1 -4,-2 -1,0 -2,-1 -4,-1 -2,0 -3,1 -4,1 -2,1 -3,2 -4,3 -1,1 -1,3 -2,4 -1,2 -1,3 -1,5 -1,1 -1,3 -1,5 0,1 0,3 0,4z"/>
   <path id="3" class="fil16" d="M513 1391c0,-3 -1,-5 -1,-7 -1,-3 -1,-5 -2,-7 0,-3 -1,-5 -1,-7 -1,-3 -1,-5 -2,-7 0,-2 -1,-4 -1,-6 -1,-2 -1,-3 -1,-5 -1,-1 -1,-2 -2,-3 0,-1 0,-1 -1,-2 0,0 -1,-1 -1,-1 -1,0 -1,0 -2,0 -1,0 -2,0 -2,0 -1,0 -2,0 -3,1l-1 -3c2,0 3,-1 4,-1 1,0 3,-1 4,-1 1,0 2,-1 3,-1 1,0 1,0 2,0 0,0 1,0 2,0 0,0 1,1 1,1 1,1 1,2 1,2 1,1 1,2 2,4 0,1 0,2 1,3 0,2 1,3 1,5 1,2 1,4 1,6 1,2 1,4 2,7 0,2 1,4 1,7 0,2 1,4 1,6 1,-1 2,-3 3,-5 2,-1 3,-3 4,-5 1,-2 2,-4 3,-5 1,-2 1,-4 2,-6 1,-2 1,-3 2,-5 0,-2 0,-3 0,-5 0,-2 0,-4 -1,-6 0,-2 -2,-3 -3,-4l0 -1c0,0 1,0 1,0 1,0 1,0 1,0 3,0 6,0 7,2 2,1 3,3 3,6 0,2 -1,4 -2,6 0,3 -2,5 -3,8 -1,2 -3,5 -5,8 -1,3 -3,5 -5,8 -2,2 -3,5 -5,7 -2,2 -3,4 -5,6l-3 0z"/>
   <path id="4" class="fil16" d="M555 1327c-1,0 -1,0 -2,0 0,-1 -1,-1 -1,-2 -1,0 -1,-1 -1,-2 -1,0 -1,-1 -1,-2 0,-1 0,-2 1,-2 0,-1 1,-2 1,-2 1,-1 1,-1 2,-1 1,-1 1,-1 2,-1 1,0 1,0 2,1 1,0 1,0 2,1 0,0 0,1 1,1 0,1 0,2 0,3 0,0 0,1 0,2 -1,1 -1,1 -2,2 0,1 -1,1 -1,1 -1,1 -2,1 -3,1zm3 15c0,3 0,5 -1,8 0,2 0,5 0,7 -1,3 -1,5 -1,7 0,2 0,4 0,6 0,2 0,4 0,6 0,2 0,3 1,4 0,1 0,2 0,3 0,1 1,1 1,1 0,1 1,1 1,1 1,0 1,0 2,0 1,0 2,0 3,0 2,-1 3,-1 4,-2l1 2c-1,1 -2,2 -3,2 -1,1 -3,1 -4,2 -1,1 -3,1 -4,1 -1,1 -3,1 -4,1 0,0 -1,0 -1,0 -1,0 -1,-1 -2,-1 0,0 -1,-1 -1,-2 0,-1 0,-2 -1,-3 0,-1 0,-3 0,-5 0,-2 0,-4 0,-7 0,-2 0,-4 0,-6 0,-2 0,-4 0,-7 0,-2 0,-5 0,-8 0,-2 0,-5 1,-8 0,0 0,-1 0,-1 0,-1 1,-1 1,-1 1,-1 1,-1 2,-1 0,0 1,0 1,0 1,0 3,0 4,1z"/>
   <path id="5" class="fil16" d="M622 1299c-1,6 -2,12 -3,18 0,6 -1,12 -2,18 0,5 -1,11 -1,17 0,6 -1,11 -1,16 0,3 0,5 1,7 0,2 0,3 0,5 0,1 0,2 0,3 1,0 1,1 1,1 0,1 1,1 1,1 1,0 1,0 2,0 1,0 2,0 3,0 2,-1 3,-1 4,-2l1 2c-1,1 -2,2 -3,2 -1,1 -3,1 -4,2 -1,1 -3,1 -4,1 -1,1 -3,1 -4,1 0,0 -1,0 -1,0 -1,-1 -1,-1 -2,-1 0,-1 -1,-1 -1,-2 0,0 0,-1 0,-2 -1,-2 -1,-3 -1,-5 0,-2 0,-4 0,-6 0,-2 0,-4 0,-7 0,-2 1,-4 1,-7l0 0c-2,5 -4,9 -6,13 -2,3 -4,7 -6,9 -3,3 -5,5 -7,6 -2,2 -4,2 -7,2 -2,0 -3,0 -5,-1 -1,-1 -3,-3 -4,-4 0,-2 -1,-4 -2,-6 0,-2 0,-4 0,-7 0,-2 0,-5 1,-8 0,-3 1,-5 2,-7 1,-3 3,-5 4,-7 2,-2 4,-4 6,-5 2,-2 4,-3 6,-4 3,-1 5,-1 8,-1 2,0 4,0 5,1 2,0 4,1 6,2 0,-4 0,-8 0,-12 0,-4 1,-8 1,-11 0,-4 0,-8 0,-11 1,-3 1,-6 1,-9 0,0 1,-1 1,-1 0,-1 1,-1 1,-1 1,0 1,0 2,-1 0,0 1,0 1,0 2,0 3,1 5,1zm-13 48c-3,-2 -6,-3 -9,-3 -2,0 -4,1 -6,2 -2,0 -4,1 -5,2 -2,2 -3,3 -4,5 -1,1 -2,3 -3,5 0,2 -1,4 -1,6 -1,2 -1,4 -1,6 0,1 0,1 0,2 0,1 0,2 1,3 0,1 0,2 0,3 1,1 1,2 1,3 1,1 2,1 2,2 1,0 2,0 3,0 1,0 3,0 5,-2 1,-1 3,-2 5,-4 1,-2 3,-5 4,-7 2,-3 3,-5 4,-8 1,-3 2,-5 3,-8 1,-3 1,-5 1,-7z"/>
   <path id="6" class="fil16" d="M642 1327c-1,0 -2,0 -2,0 -1,-1 -1,-1 -2,-2 0,0 -1,-1 -1,-2 0,0 0,-1 0,-2 0,-1 0,-2 0,-2 1,-1 1,-2 2,-2 0,-1 1,-1 2,-1 0,-1 1,-1 2,-1 0,0 1,0 2,1 0,0 1,0 1,1 1,0 1,1 1,1 0,1 1,2 1,3 0,0 -1,1 -1,2 0,1 0,1 -1,2 0,1 -1,1 -2,1 0,1 -1,1 -2,1zm3 15c0,3 -1,5 -1,8 0,2 -1,5 -1,7 0,3 0,5 0,7 0,2 0,4 0,6 0,2 0,4 0,6 0,2 0,3 0,4 0,1 1,2 1,3 0,1 0,1 1,1 0,1 0,1 1,1 0,0 1,0 2,0 1,0 2,0 3,0 1,-1 3,-1 4,-2l1 2c-1,1 -2,2 -4,2 -1,1 -2,1 -3,2 -2,1 -3,1 -4,1 -2,1 -3,1 -4,1 -1,0 -1,0 -2,0 0,0 -1,-1 -1,-1 -1,0 -1,-1 -1,-2 -1,-1 -1,-2 -1,-3 0,-1 0,-3 -1,-5 0,-2 0,-4 0,-7 0,-2 0,-4 0,-6 0,-2 0,-4 0,-7 1,-2 1,-5 1,-8 0,-2 0,-5 0,-8 0,0 0,-1 1,-1 0,-1 0,-1 1,-1 0,-1 1,-1 1,-1 1,0 1,0 2,0 1,0 3,0 4,1z"/>
   <path id="7" class="fil16" d="M665 1351c0,-1 0,-2 0,-3 0,0 -1,-1 -1,-1 0,0 -1,-1 -1,-1 0,0 -1,0 -2,0 0,0 -1,0 -3,0 -1,1 -2,1 -3,1l-1 -2c2,-1 3,-1 5,-2 1,0 3,-1 4,-1 1,0 2,-1 3,-1 1,0 2,0 2,0 2,0 3,0 4,1 0,1 1,2 1,4 0,0 0,1 0,2 0,1 0,2 -1,3 0,1 0,3 0,4 0,2 0,4 0,5 0,2 -1,4 -1,6 0,2 0,4 0,6l0 0c2,-6 3,-11 5,-15 2,-4 5,-7 7,-9 2,-3 4,-5 6,-6 2,-1 4,-1 6,-1 1,0 2,0 3,0 1,1 3,2 3,3 1,1 2,2 3,4 0,1 1,3 1,5 0,1 -1,2 -1,3 0,1 0,3 0,4 0,1 0,3 0,4 0,2 -1,3 -1,5 0,1 0,3 0,4 0,2 0,3 0,4 0,2 0,3 0,4 0,1 1,2 1,3 0,0 1,1 1,1 1,0 2,0 2,0 2,0 3,0 4,0 1,-1 3,-1 4,-2l1 2c-1,1 -2,2 -4,2 -1,1 -2,1 -4,2 -1,1 -2,1 -4,1 -1,1 -2,1 -3,1 -2,0 -3,0 -3,-1 -1,-1 -1,-2 -2,-3 0,-1 0,-2 0,-4 -1,-1 -1,-3 -1,-4 0,-3 0,-5 1,-7 0,-2 0,-4 0,-6 0,-2 0,-4 1,-6 0,-1 0,-3 0,-4 0,-2 -1,-4 -2,-6 -1,-1 -2,-1 -4,-1 -1,0 -2,0 -4,1 -1,1 -3,3 -4,5 -2,2 -3,4 -5,7 -1,2 -2,5 -3,8 -1,3 -2,6 -3,9 -1,4 -1,7 -1,10l-7 1 -1 0c0,-2 0,-4 1,-7 0,-2 0,-5 0,-7 0,-3 0,-5 0,-8 1,-3 1,-5 1,-7 0,-2 0,-4 0,-6 0,-2 0,-3 0,-4z"/>
   <path id="8" class="fil16" d="M756 1348c1,1 2,3 2,4 1,2 1,4 1,6 0,1 0,3 -1,5 0,1 -1,3 -2,5 -1,1 -2,2 -3,4 -1,1 -3,2 -4,3 -2,1 -4,2 -5,2 -2,1 -4,1 -6,1 0,0 -1,0 -1,0 -1,0 -1,0 -2,0 -1,0 -2,0 -2,0 -1,1 -1,1 -2,1 0,1 -1,1 -1,2 0,0 -1,1 -1,1 0,1 1,2 2,3 0,1 2,1 3,2 1,0 3,1 4,1 2,0 4,1 6,1 2,1 3,1 5,1 2,1 3,1 5,2 1,0 3,1 4,1 1,1 2,2 3,3 1,1 2,2 3,3 0,1 0,2 0,4 0,2 0,4 -1,5 0,2 -1,4 -3,5 -1,2 -3,3 -4,5 -2,1 -4,2 -6,3 -3,1 -5,2 -7,2 -3,1 -5,1 -8,1 -2,0 -3,0 -5,0 -1,-1 -3,-1 -5,-1 -1,-1 -3,-1 -4,-2 -2,-1 -3,-2 -4,-3 -1,-1 -2,-2 -3,-3 -1,-2 -1,-3 -1,-5 0,-1 0,-3 1,-4 0,-1 1,-3 2,-4 0,-1 1,-2 2,-3 2,-1 3,-2 4,-3 1,0 2,-1 4,-2 1,0 2,-1 3,-1l0 0c-1,0 -1,-1 -2,-1 -1,-1 -2,-1 -2,-2 -1,-1 -2,-1 -2,-2 0,-1 -1,-2 -1,-3 0,-1 1,-2 1,-3 1,-1 1,-2 2,-2 1,-1 2,-2 3,-2 1,-1 2,-1 3,-1 -2,-1 -4,-2 -5,-3 -1,-1 -2,-2 -3,-4 -1,-1 -2,-2 -3,-4 0,-2 0,-3 0,-5 0,-3 0,-6 1,-8 2,-3 3,-5 5,-7 2,-1 4,-3 7,-4 3,-1 5,-1 8,-1 1,0 2,0 3,0 1,0 2,0 3,0 1,1 1,1 2,1 1,1 1,1 2,1 1,0 2,1 2,1 1,0 2,1 3,1 1,0 2,0 3,-1 1,0 2,0 2,-1 1,-1 1,-1 2,-2 0,-1 0,-2 0,-3 0,0 0,0 0,0 0,0 0,0 0,-1l1 0c1,1 2,2 3,3 1,1 1,2 1,3 0,1 0,2 0,2 0,1 -1,1 -2,2 0,0 -1,1 -2,1 -1,0 -2,0 -3,0 -1,0 -3,0 -5,-1l0 1zm-23 46c-1,1 -3,2 -4,2 -2,1 -3,2 -4,3 -1,1 -2,3 -3,4 -1,2 -1,3 -1,5 0,2 1,4 2,6 1,1 2,2 3,3 2,2 4,2 6,3 1,0 3,0 5,0 3,0 5,0 7,-1 3,0 5,-1 6,-3 2,-1 4,-3 5,-4 1,-2 1,-4 1,-6 0,-2 0,-3 -1,-3 0,-1 -1,-2 -2,-3 -1,0 -2,-1 -3,-1 -1,-1 -2,-1 -4,-2 -2,0 -4,-1 -6,-1 -2,0 -4,-1 -7,-2zm7 -20c2,0 3,0 4,0 1,-1 2,-1 2,-2 1,-1 2,-2 2,-3 1,0 1,-1 2,-2 0,-1 0,-3 1,-4 0,-1 0,-2 0,-3 0,-1 0,-2 -1,-3 0,-2 0,-3 -1,-4 0,-1 -1,-2 -1,-3 -1,-1 -2,-2 -3,-3 0,-1 -1,-1 -3,-2 -1,0 -2,-1 -3,-1 -2,0 -3,1 -4,1 -1,0 -2,1 -3,2 -1,0 -1,1 -2,2 0,1 -1,2 -1,3 0,1 -1,2 -1,3 0,1 0,2 0,3 0,1 0,3 0,4 0,1 1,2 1,4 1,1 1,2 2,3 1,1 1,2 2,3 1,0 2,1 4,2 1,0 2,0 3,0z"/>
   <path id="9" class="fil16" d="M805 1323c0,-1 0,-2 0,-3 0,-1 -1,-1 -1,-2 0,0 -1,0 -2,-1 0,0 -1,0 -2,0 -1,0 -2,0 -3,0 -1,0 -2,0 -3,1l-1 -3c4,-1 6,-2 9,-2 2,-1 4,-1 6,-1 1,0 3,0 3,1 1,0 2,1 2,2 1,0 1,1 1,2 0,2 0,3 0,4 0,0 0,1 0,2 0,2 0,4 0,6 0,2 0,5 0,8 -1,3 -1,6 -1,10 0,3 0,6 0,10 0,4 0,7 -1,10 0,4 0,7 0,10 0,3 0,6 -1,8 2,0 5,-1 7,-1 1,0 3,0 5,0 2,0 5,0 7,0 2,0 4,0 6,0 1,0 2,0 3,0 1,-1 2,-1 3,-2 1,-1 2,-3 2,-4 1,-2 1,-4 1,-7l3 0c0,4 0,8 0,10 -1,3 -2,5 -2,6 -1,2 -2,3 -4,3 -1,1 -2,1 -4,1 -1,0 -2,0 -4,0 -1,-1 -3,-1 -5,-1 -1,0 -3,-1 -5,-1 -2,0 -5,0 -7,0 -2,0 -4,0 -7,0 -2,0 -5,1 -7,1l-1 0c1,-3 1,-6 1,-9 0,-4 1,-8 1,-11 0,-4 0,-8 0,-12 1,-4 1,-8 1,-12 0,-4 0,-8 0,-12 0,-4 0,-8 0,-11z"/>
   <path id="10" class="fil16" d="M864 1327c-1,0 -2,0 -2,0 -1,-1 -1,-1 -2,-2 0,0 -1,-1 -1,-2 0,0 0,-1 0,-2 0,-1 0,-2 0,-2 1,-1 1,-2 2,-2 0,-1 1,-1 1,-1 1,-1 2,-1 2,-1 1,0 2,0 2,1 1,0 2,0 2,1 1,0 1,1 1,1 0,1 0,2 0,3 0,0 0,1 0,2 0,1 -1,1 -1,2 -1,1 -1,1 -2,1 -1,1 -1,1 -2,1zm3 15c-1,3 -1,5 -1,8 0,2 -1,5 -1,7 0,3 0,5 0,7 0,2 0,4 0,6 0,2 0,4 0,6 0,2 0,3 0,4 0,1 0,2 1,3 0,1 0,1 1,1 0,1 0,1 1,1 0,0 1,0 1,0 2,0 3,0 4,0 1,-1 3,-1 4,-2l0 2c0,1 -1,2 -3,2 -1,1 -2,1 -4,2 -1,1 -2,1 -4,1 -1,1 -2,1 -3,1 -1,0 -1,0 -2,0 0,0 -1,-1 -1,-1 -1,0 -1,-1 -1,-2 -1,-1 -1,-2 -1,-3 0,-1 -1,-3 -1,-5 0,-2 0,-4 0,-7 0,-2 0,-4 0,-6 0,-2 0,-4 0,-7 0,-2 1,-5 1,-8 0,-2 0,-5 0,-8 0,0 0,-1 1,-1 0,-1 0,-1 1,-1 0,-1 1,-1 1,-1 1,0 1,0 1,0 2,0 3,0 5,1z"/>
   <path id="11" class="fil16" d="M895 1343c1,0 3,0 4,0 1,0 2,0 3,1 1,0 1,0 2,0 1,0 2,0 2,0 1,0 2,0 3,-1 1,0 2,0 2,0 1,1 1,2 1,2 0,1 -1,2 -1,2 -1,1 -2,1 -4,1 -2,0 -3,0 -5,-1 -2,0 -4,0 -7,0 0,3 0,6 0,9 0,3 0,6 -1,9 0,4 0,7 0,11 -1,3 -1,6 -2,10 0,3 -1,6 -1,9 -1,3 -2,6 -3,8 -1,4 -2,7 -4,10 -2,2 -4,4 -6,6 -1,2 -3,3 -5,3 -3,1 -5,1 -7,1 -1,0 -3,0 -5,0 -1,-1 -2,-1 -3,-2 -2,0 -2,-1 -3,-2 -1,-1 -1,-2 -1,-3 0,0 0,-1 0,-1 1,-1 1,-1 1,-2 1,0 1,0 2,-1 1,0 1,0 2,0 1,1 1,2 2,3 1,1 2,1 3,2 1,0 2,1 3,1 1,0 2,0 3,0 2,0 5,0 6,-2 2,-2 4,-4 5,-7 1,-3 2,-7 3,-11 1,-5 1,-9 2,-15 0,-5 0,-11 0,-17 0,-6 1,-12 1,-19 -3,0 -5,0 -6,0 -2,0 -4,0 -5,1 0,0 0,0 0,-1 0,0 0,-1 1,-1 0,-1 1,-1 2,-1 1,-1 2,-1 3,-1 2,0 3,-1 5,-1 0,-2 0,-4 0,-6 0,-2 0,-4 1,-5 0,-2 0,-4 0,-6 1,-2 1,-4 2,-6 0,-2 1,-5 2,-7 1,-2 2,-4 3,-6 2,-1 3,-3 4,-4 2,-1 3,-2 5,-3 1,0 3,-1 5,-1 1,-1 3,-1 4,-1 3,0 4,1 6,1 2,1 3,1 5,2 1,1 2,2 2,4 1,1 1,2 1,3 0,1 0,2 0,3 0,0 -1,1 -1,1 -1,1 -2,1 -2,2 -1,0 -2,0 -3,0 -1,0 -2,0 -3,-1l0 0c0,-1 1,-2 1,-3 0,0 0,-1 0,-2 0,-1 0,-2 0,-3 -1,-1 -1,-1 -2,-2 -1,0 -2,-1 -3,-1 0,0 -1,0 -2,0 -3,0 -5,0 -7,2 -1,1 -3,2 -4,4 -1,2 -2,4 -3,7 -1,3 -1,6 -2,9 0,3 0,6 0,9 0,4 -1,7 -1,10z"/>
   <path id="12" class="fil16" d="M946 1379c0,0 0,0 0,0 0,0 1,1 1,1 0,0 0,0 0,0 0,0 1,1 1,1 0,0 0,0 -1,0 -1,2 -2,3 -4,4 -1,2 -3,3 -4,4 -2,1 -4,1 -5,2 -2,0 -3,0 -5,0 -3,0 -5,0 -8,-1 -2,-2 -4,-3 -6,-5 -1,-2 -2,-4 -3,-7 -1,-2 -2,-5 -2,-8 0,-2 0,-5 1,-7 1,-2 1,-5 2,-7 1,-2 3,-4 4,-6 2,-2 3,-3 5,-5 2,-1 4,-2 6,-3 2,-1 5,-1 7,-1 2,0 4,0 5,0 2,1 3,2 4,2 2,1 2,2 3,3 1,2 1,3 1,5 0,2 -1,4 -2,6 -2,1 -4,3 -6,4 -3,1 -6,2 -10,3 -4,1 -8,1 -12,1l0 1c0,3 1,6 1,8 1,2 2,4 3,6 2,2 3,3 5,4 2,1 4,1 6,1 2,0 4,0 6,-1 2,-1 5,-3 7,-5zm-7 -27c0,-1 0,-2 0,-3 -1,-1 -1,-2 -2,-2 0,-1 -1,-1 -2,-2 -1,0 -2,0 -3,0 -1,0 -3,0 -4,0 -1,1 -2,2 -3,3 -1,0 -2,1 -3,3 0,1 -1,2 -2,3 0,2 -1,3 -1,4 0,2 0,3 -1,5 4,-1 7,-1 9,-2 3,0 5,-1 7,-2 2,-1 3,-2 4,-3 1,-1 1,-2 1,-4z"/>
   <path id="13" class="fil16" d="M997 1317c-1,4 -2,8 -3,13 0,5 -1,9 -2,13 2,0 3,1 4,1 1,0 2,0 2,0 1,0 2,0 3,0 1,0 1,0 2,0 2,0 3,0 5,-1 0,1 0,1 0,1 0,1 0,1 0,1 0,1 0,2 -1,2 -1,0 -2,1 -4,1 -1,0 -3,-1 -5,-1 -2,0 -4,0 -6,0 0,2 0,4 -1,7 0,2 0,4 0,6 0,2 0,4 0,6 0,2 0,3 0,4 0,3 0,5 0,7 0,2 1,3 1,4 1,2 2,3 3,3 1,1 3,2 4,2 2,0 3,-1 5,-1 1,-1 3,-1 5,-2 0,0 1,1 1,2 -2,1 -3,2 -4,3 -2,0 -3,1 -5,1 -1,1 -2,1 -4,2 -1,0 -2,0 -4,0 -1,0 -2,0 -4,-1 -1,0 -2,-1 -3,-3 -1,-1 -2,-3 -2,-5 -1,-3 -1,-6 -1,-9 0,-2 0,-4 0,-7 0,-2 0,-4 0,-6 1,-2 1,-5 1,-7 0,-2 0,-4 0,-6 -1,0 -3,0 -5,0 -1,0 -2,0 -4,1 0,-1 0,-1 0,-1 0,0 1,-1 1,-1 1,-1 1,-1 2,-1 1,-1 2,-1 3,-1 1,0 2,-1 4,-1 0,-4 1,-9 2,-13 0,-4 1,-8 1,-11 0,-1 1,-1 1,-2 0,0 1,0 1,0 1,-1 1,-1 1,-1 1,0 1,0 2,0 1,0 1,0 2,0 0,0 1,1 2,1z"/>
   <path id="14" class="fil16" d="M1023 1372c2,-6 4,-11 6,-15 2,-4 4,-7 6,-9 2,-3 4,-5 6,-6 2,-1 4,-1 6,-1 1,0 3,0 4,0 1,1 2,2 3,3 1,1 2,2 2,3 1,2 1,4 1,6 0,1 0,2 0,3 0,1 0,2 0,4 0,1 -1,3 -1,4 0,2 0,3 0,5 0,1 0,3 0,4 -1,2 -1,3 -1,4 0,2 1,3 1,4 0,1 0,2 0,3 1,0 1,1 2,1 0,0 1,0 2,0 1,0 2,0 4,0 1,-1 2,-1 3,-2l1 2c-1,1 -2,2 -3,2 -1,1 -3,1 -4,2 -1,1 -3,1 -4,1 -1,1 -3,1 -4,1 -1,0 -2,0 -3,-1 0,-1 -1,-2 -1,-3 -1,-1 -1,-2 -1,-4 0,-1 0,-3 0,-4 0,-3 0,-5 0,-7 0,-2 0,-4 1,-6 0,-2 0,-4 0,-6 0,-2 0,-3 0,-4 0,-2 0,-4 -1,-6 -1,-1 -3,-1 -4,-1 -1,0 -3,0 -4,1 -2,1 -3,3 -5,5 -1,2 -3,4 -4,7 -1,2 -3,5 -4,8 -1,3 -2,6 -2,9 -1,4 -1,7 -2,10l-7 1 -1 0c1,-2 1,-5 1,-8 0,-4 0,-7 0,-11 1,-3 1,-7 1,-11 0,-4 1,-8 1,-12 0,-4 0,-8 0,-12 1,-4 1,-8 1,-12 0,-4 1,-8 1,-12 0,-4 0,-7 0,-11 0,0 1,-1 1,-1 0,-1 0,-1 1,-1 0,0 1,0 2,-1 0,0 1,0 1,0 2,0 3,1 5,1 -1,5 -1,9 -2,13 0,4 0,7 -1,10 0,4 0,7 -1,10 0,2 0,5 0,8 -1,2 -1,5 -1,7 0,3 0,5 -1,8 0,2 0,5 0,8 0,2 -1,5 -1,9l0 0z"/>
   <path id="15" class="fil16" d="M1106 1379c0,0 1,0 1,0 0,0 0,1 0,1 1,0 1,0 1,0 0,0 0,1 0,1 0,0 0,0 0,0 -1,2 -3,3 -4,4 -2,2 -3,3 -5,4 -1,1 -3,1 -5,2 -1,0 -3,0 -5,0 -2,0 -5,0 -7,-1 -2,-2 -4,-3 -6,-5 -2,-2 -3,-4 -4,-7 -1,-2 -1,-5 -1,-8 0,-2 0,-5 1,-7 0,-2 1,-5 2,-7 1,-2 2,-4 4,-6 1,-2 3,-3 5,-5 1,-1 4,-2 6,-3 2,-1 4,-1 7,-1 2,0 3,0 5,0 1,1 3,2 4,2 1,1 2,2 3,3 0,2 1,3 1,5 0,2 -1,4 -3,6 -1,1 -3,3 -6,4 -3,1 -6,2 -9,3 -4,1 -8,1 -12,1l0 1c0,3 0,6 1,8 1,2 2,4 3,6 1,2 3,3 5,4 1,1 3,1 5,1 2,0 5,0 7,-1 2,-1 4,-3 6,-5zm-6 -27c0,-1 0,-2 -1,-3 0,-1 -1,-2 -1,-2 -1,-1 -2,-1 -2,-2 -1,0 -2,0 -3,0 -2,0 -3,0 -4,0 -2,1 -3,2 -4,3 -1,0 -1,1 -2,3 -1,1 -2,2 -2,3 -1,2 -1,3 -1,4 -1,2 -1,3 -1,5 3,-1 6,-1 9,-2 2,0 5,-1 6,-2 2,-1 3,-2 4,-3 1,-1 2,-2 2,-4z"/>
   <path id="16" class="fil16" d="M1179 1310c3,0 5,1 8,1 3,1 5,1 7,2 1,1 3,2 4,3 1,1 2,1 2,2 0,2 0,4 -1,6 0,3 0,6 0,9l-3 0c0,0 0,-1 0,-1 0,0 0,0 0,-1 0,-1 0,-3 -1,-4 0,-2 0,-3 -1,-4 -1,-1 -2,-3 -4,-4 -1,-1 -2,-1 -4,-2 -1,-1 -3,-1 -5,-2 -1,0 -3,0 -5,0 -3,0 -6,0 -8,1 -3,1 -5,3 -7,4 -2,2 -4,4 -5,6 -2,2 -3,5 -4,7 -1,3 -1,6 -2,9 0,3 -1,6 -1,9 0,3 1,6 1,9 1,4 2,6 3,9 1,3 2,5 4,7 1,2 3,4 5,5 2,2 4,3 6,4 3,0 5,1 8,1 1,0 3,0 5,-1 2,0 4,-1 6,-1 1,-1 3,-2 5,-3 2,-2 4,-3 6,-5 0,0 1,0 1,0 0,1 0,1 0,1 1,0 1,0 1,0 0,1 0,1 0,1 0,0 0,0 0,1 -2,2 -5,4 -7,6 -2,1 -5,3 -7,4 -2,1 -4,1 -7,2 -2,0 -5,1 -7,1 -3,0 -6,-1 -9,-2 -3,-1 -5,-2 -8,-3 -2,-2 -4,-4 -6,-6 -2,-2 -4,-5 -5,-8 -1,-2 -3,-5 -3,-9 -1,-3 -1,-6 -1,-10 0,-3 0,-7 1,-10 0,-4 2,-7 3,-11 1,-3 3,-6 5,-9 3,-2 5,-5 8,-7 3,-2 6,-4 10,-5 3,-1 7,-2 12,-2z"/>
   <path id="17" class="fil16" d="M1236 1355c0,-2 0,-3 -1,-5 0,-1 -1,-2 -2,-3 -1,-1 -2,-1 -3,-2 -1,0 -3,0 -4,0 -1,0 -3,0 -4,0 -1,1 -2,1 -3,2 0,0 -1,1 -1,2 0,0 -1,1 -1,2 0,1 1,2 1,3 0,2 1,3 2,4l0 0c-2,1 -3,1 -4,1 -1,0 -2,0 -3,0 0,-1 -1,-1 -1,-1 -1,-1 -1,-1 -1,-2 -1,-1 -1,-1 -1,-2 0,-2 0,-3 1,-4 1,-1 2,-2 3,-3 1,-1 2,-2 3,-3 2,-1 3,-1 5,-2 1,0 3,-1 4,-1 2,0 3,0 5,0 2,0 4,0 6,1 2,0 3,1 4,2 1,2 2,3 2,5 1,1 1,3 1,5 0,2 0,4 0,5 0,2 0,4 -1,6 0,2 0,4 0,6 0,2 0,4 0,6 0,3 0,6 2,7 1,2 2,3 4,3 2,0 4,-1 6,-2l1 1c-1,2 -3,3 -5,4 -1,0 -3,1 -5,1 -2,0 -3,0 -4,-1 -2,0 -3,-1 -4,-2 -1,-1 -1,-2 -2,-4 0,-1 -1,-3 -1,-5 0,-1 0,-1 0,-2 0,0 1,-1 1,-2l-1 0c-1,2 -2,4 -3,6 -1,2 -3,4 -4,5 -2,2 -3,3 -5,4 -2,1 -4,1 -6,1 -1,0 -3,0 -4,-1 -1,0 -2,-1 -3,-2 -1,-1 -2,-2 -3,-3 0,-2 0,-3 0,-4 0,-2 0,-4 1,-6 1,-1 2,-3 3,-4 1,-1 3,-3 5,-3 1,-1 3,-2 6,-3 2,0 4,-1 6,-1 3,0 5,-1 8,-1 0,-1 0,-2 0,-4 0,-1 0,-3 0,-4zm-21 23c0,1 0,2 1,2 0,1 0,2 0,3 1,0 1,1 2,1 1,0 2,1 2,1 1,0 3,-1 4,-1 1,-1 2,-1 3,-2 1,-1 2,-2 3,-3 1,-1 2,-3 3,-4 0,-1 1,-3 1,-4 1,-2 1,-3 2,-5 -2,0 -4,0 -6,0 -1,1 -3,1 -4,1 -2,1 -3,1 -4,2 -2,0 -3,1 -4,2 -1,1 -1,2 -2,3 -1,1 -1,2 -1,4z"/>
   <path id="18" class="fil16" d="M1263 1390l0 0c0,-2 0,-4 0,-7 0,-2 0,-5 1,-7 0,-3 0,-5 0,-8 0,-3 0,-5 0,-7 0,-2 0,-4 0,-6 0,-2 0,-3 0,-4 0,-1 0,-2 0,-2 0,-1 0,-1 0,-2 0,0 -1,-1 -1,-1 -1,0 -1,0 -2,0 0,0 -1,0 -1,0 -1,0 -1,0 -2,0 0,0 -1,0 -1,1 -1,0 -2,0 -3,0l0 -2c4,-2 7,-3 9,-3 3,-1 4,-1 5,-1 2,0 3,0 3,1 1,1 1,2 1,4 0,0 0,1 0,2 0,0 0,1 0,3 0,1 0,2 0,4 0,1 -1,3 -1,5 0,2 0,4 0,6 0,2 -1,4 -1,6l1 0c1,-5 2,-9 3,-13 2,-3 3,-7 5,-9 2,-3 4,-5 6,-7 2,-2 4,-2 6,-2 1,0 2,0 3,0 1,0 1,1 2,1 0,1 1,1 1,2 1,0 1,1 1,2 0,1 -1,2 -1,3 0,1 -1,2 -2,2l0 0c-1,0 -2,-1 -3,-1 -1,-1 -2,-1 -3,-1 -1,0 -2,0 -3,1 -1,0 -2,1 -2,1 -2,2 -3,3 -4,5 -1,2 -2,4 -3,6 -1,3 -2,5 -3,8 0,2 -1,5 -2,7 0,3 -1,5 -1,7 0,2 -1,4 -1,5l-7 1z"/>
   <path id="19" class="fil16" d="M1333 1379c0,0 0,0 1,0 0,0 0,1 0,1 0,0 1,0 1,0 0,0 0,1 0,1 0,0 0,0 0,0 -2,2 -3,3 -4,4 -2,2 -3,3 -5,4 -2,1 -3,1 -5,2 -2,0 -3,0 -5,0 -3,0 -5,0 -7,-1 -3,-2 -5,-3 -6,-5 -2,-2 -3,-4 -4,-7 -1,-2 -2,-5 -2,-8 0,-2 1,-5 1,-7 1,-2 2,-5 3,-7 1,-2 2,-4 3,-6 2,-2 4,-3 5,-5 2,-1 4,-2 7,-3 2,-1 4,-1 7,-1 1,0 3,0 5,0 1,1 2,2 4,2 1,1 2,2 2,3 1,2 1,3 1,5 0,2 0,4 -2,6 -1,1 -3,3 -6,4 -3,1 -6,2 -10,3 -3,1 -7,1 -11,1l0 1c0,3 0,6 1,8 0,2 1,4 3,6 1,2 3,3 4,4 2,1 4,1 6,1 2,0 4,0 6,-1 3,-1 5,-3 7,-5zm-6 -27c0,-1 -1,-2 -1,-3 0,-1 -1,-2 -1,-2 -1,-1 -2,-1 -3,-2 -1,0 -2,0 -3,0 -1,0 -2,0 -4,0 -1,1 -2,2 -3,3 -1,0 -2,1 -2,3 -1,1 -2,2 -2,3 -1,2 -1,3 -2,4 0,2 0,3 0,5 3,-1 6,-1 9,-2 2,0 4,-1 6,-2 2,-1 3,-2 4,-3 1,-1 2,-2 2,-4z"/>
   <path id="20" class="fil16" d="M1375 1323c0,-1 0,-2 0,-3 -1,-1 -1,-1 -1,-2 0,0 -1,0 -2,-1 0,0 -1,0 -2,0 -1,0 -2,0 -3,0 -1,0 -2,0 -4,1l0 -3c3,-1 6,-2 9,-2 2,-1 4,-1 6,-1 1,0 2,0 3,1 1,0 2,1 2,2 0,0 1,1 1,2 0,2 0,3 0,4 0,1 0,2 0,4 0,2 0,5 -1,8 0,4 0,8 0,12 0,4 0,9 0,14 0,5 -1,10 -1,15 0,5 0,10 0,15l-8 1 -1 0c0,-6 0,-12 1,-18 0,-6 0,-11 0,-17 0,-5 1,-10 1,-16 0,-5 0,-11 0,-16z"/>
   <path id="21" class="fil16" d="M1415 1317c-1,4 -2,8 -3,13 0,5 -1,9 -1,13 1,0 2,1 3,1 1,0 2,0 3,0 1,0 1,0 2,0 1,0 1,0 2,0 2,0 4,0 5,-1 0,1 0,1 0,1 0,1 0,1 0,1 0,1 0,2 -1,2 -1,0 -2,1 -4,1 -1,0 -3,-1 -5,-1 -1,0 -3,0 -6,0 0,2 0,4 0,7 -1,2 -1,4 -1,6 0,2 0,4 0,6 0,2 0,3 0,4 0,3 0,5 0,7 1,2 1,3 2,4 0,2 1,3 2,3 1,1 3,2 5,2 1,0 2,-1 4,-1 1,-1 3,-1 5,-2 1,0 1,1 1,2 -1,1 -3,2 -4,3 -2,0 -3,1 -5,1 -1,1 -2,1 -4,2 -1,0 -2,0 -3,0 -2,0 -3,0 -5,-1 -1,0 -2,-1 -3,-3 -1,-1 -1,-3 -2,-5 -1,-3 -1,-6 -1,-9 0,-2 0,-4 0,-7 0,-2 0,-4 1,-6 0,-2 0,-5 0,-7 0,-2 0,-4 1,-6 -2,0 -4,0 -5,0 -2,0 -3,0 -4,1 0,-1 0,-1 0,-1 0,0 0,-1 0,-1 1,-1 1,-1 2,-1 1,-1 2,-1 3,-1 1,0 3,-1 4,-1 1,-4 1,-9 2,-13 0,-4 1,-8 2,-11 0,-1 0,-1 0,-2 0,0 1,0 1,0 1,-1 1,-1 2,-1 0,0 1,0 1,0 1,0 1,0 2,0 1,0 1,1 2,1z"/>
   <path id="22" class="fil16" d="M1473 1316c0,1 0,3 0,5 0,2 0,5 0,8 0,3 0,6 0,9 0,4 0,7 -1,11 0,4 0,7 0,11 0,4 0,7 0,10 0,3 -1,6 -1,9 0,2 0,5 0,6 2,1 4,1 6,1 2,1 4,1 6,1 4,0 7,-1 10,-2 3,-1 6,-2 8,-4 2,-1 4,-3 6,-6 2,-2 3,-5 4,-7 1,-3 2,-6 2,-9 1,-3 1,-7 1,-10 0,-5 -1,-9 -2,-13 -1,-4 -3,-8 -5,-11 -3,-3 -6,-5 -10,-7 -4,-2 -9,-2 -15,-2 -1,0 -3,0 -4,0 -2,0 -3,0 -5,0zm-20 -1c2,-1 5,-1 7,-1 3,-1 5,-1 8,-1 2,-1 5,-1 8,-1 2,0 5,-1 8,-1 3,0 7,1 10,1 3,1 6,1 9,2 3,1 6,3 9,5 2,1 4,3 6,6 2,3 3,6 4,9 1,4 2,8 2,12 0,5 -1,9 -2,12 -1,4 -2,8 -3,11 -2,3 -4,6 -6,9 -3,3 -5,5 -8,7 -3,2 -7,3 -10,4 -4,1 -8,2 -12,2 -2,0 -4,0 -7,-1 -2,0 -4,0 -7,-1l-6 1 -1 0c0,-2 0,-3 0,-6 1,-2 1,-5 1,-8 0,-3 0,-7 0,-11 1,-3 1,-7 1,-12 0,-4 0,-9 0,-14 0,-5 0,-10 0,-15 0,-1 0,-2 0,-3 0,-1 0,-1 -1,-2 0,-1 0,-1 -1,-1 -1,0 -2,-1 -3,-1 -2,0 -4,1 -6,1l0 -3z"/>
   <path id="23" class="fil16" d="M1567 1379c0,0 0,0 1,0 0,0 0,1 0,1 0,0 1,0 1,0 0,0 0,1 0,1 0,0 0,0 0,0 -1,2 -3,3 -4,4 -2,2 -3,3 -5,4 -1,1 -3,1 -5,2 -1,0 -3,0 -5,0 -2,0 -5,0 -7,-1 -2,-2 -4,-3 -6,-5 -2,-2 -3,-4 -4,-7 -1,-2 -1,-5 -1,-8 0,-2 0,-5 0,-7 1,-2 2,-5 3,-7 1,-2 2,-4 3,-6 2,-2 4,-3 5,-5 2,-1 4,-2 7,-3 2,-1 4,-1 7,-1 2,0 3,0 5,0 1,1 3,2 4,2 1,1 2,2 3,3 0,2 1,3 1,5 0,2 -1,4 -3,6 -1,1 -3,3 -6,4 -3,1 -6,2 -10,3 -3,1 -7,1 -11,1l0 1c0,3 0,6 1,8 1,2 2,4 3,6 1,2 3,3 5,4 1,1 3,1 5,1 2,0 4,0 7,-1 2,-1 4,-3 6,-5zm-6 -27c0,-1 0,-2 -1,-3 0,-1 -1,-2 -1,-2 -1,-1 -2,-1 -3,-2 0,0 -1,0 -2,0 -2,0 -3,0 -4,0 -2,1 -3,2 -4,3 -1,0 -2,1 -2,3 -1,1 -2,2 -2,3 -1,2 -1,3 -1,4 -1,2 -1,3 -1,5 3,-1 6,-1 9,-2 2,0 4,-1 6,-2 2,-1 3,-2 4,-3 1,-1 2,-2 2,-4z"/>
   <path id="24" class="fil16" d="M1581 1377c0,2 0,3 1,5 1,1 2,2 3,3 1,0 2,1 4,1 1,1 2,1 4,1 1,0 2,0 3,0 2,-1 3,-1 4,-2 0,-1 1,-1 2,-2 0,-1 0,-2 0,-3 0,-2 0,-3 0,-3 -1,-1 -2,-2 -3,-3 -1,-1 -2,-1 -3,-2 -1,-1 -3,-1 -4,-2 -1,0 -2,-1 -4,-2 -1,0 -2,-1 -3,-1 -1,-1 -2,-2 -3,-3 -1,0 -2,-1 -3,-2 -1,-1 -1,-2 -2,-3 0,-2 0,-3 0,-4 0,-2 0,-3 0,-5 1,-1 2,-2 3,-3 1,-1 2,-2 3,-3 1,-1 3,-1 4,-2 1,0 3,-1 4,-1 2,0 3,0 5,0 2,0 3,0 5,0 2,1 3,1 4,2 1,1 2,2 3,3 1,1 1,2 1,3 0,1 0,1 0,2 0,1 -1,1 -1,2 0,0 -1,1 -2,1 0,0 -1,1 -2,1 -1,0 -2,-1 -3,-1l0 0c0,-1 0,-2 0,-2 0,-1 0,-1 0,-2 0,-1 0,-2 0,-2 -1,-1 -2,-2 -2,-2 -1,-1 -2,-1 -3,-1 -1,0 -2,0 -3,0 -1,0 -3,0 -4,0 -1,1 -2,1 -3,2 -1,1 -2,1 -2,2 -1,1 -1,2 -1,3 0,1 0,2 1,3 1,1 1,2 3,3 1,1 2,2 3,2 2,1 3,2 5,3 2,0 3,1 5,2 2,1 3,2 5,3 1,1 2,2 3,4 1,1 1,3 1,5 0,2 0,4 -1,6 -1,2 -3,3 -5,4 -1,2 -3,3 -6,3 -2,1 -4,1 -7,1 -1,0 -2,0 -3,0 -2,0 -3,-1 -4,-1 -1,0 -2,-1 -4,-1 -1,-1 -2,-1 -2,-2 -1,-1 -2,-1 -2,-2 -1,-1 -1,-2 -1,-3 0,-1 0,-2 1,-2 0,-1 0,-1 1,-2 1,0 1,0 2,-1 1,0 2,0 2,0l1 0z"/>
   <path id="25" class="fil16" d="M1651 1379c0,0 1,0 1,0 0,0 0,1 0,1 1,0 1,0 1,0 0,0 0,1 0,1 0,0 0,0 0,0 -1,2 -3,3 -4,4 -2,2 -3,3 -5,4 -1,1 -3,1 -5,2 -1,0 -3,0 -4,0 -3,0 -6,0 -8,-1 -2,-2 -4,-3 -6,-5 -2,-2 -3,-4 -4,-7 -1,-2 -1,-5 -1,-8 0,-2 0,-5 1,-7 0,-2 1,-5 2,-7 1,-2 2,-4 4,-6 1,-2 3,-3 5,-5 2,-1 4,-2 6,-3 2,-1 4,-1 7,-1 2,0 3,0 5,0 1,1 3,2 4,2 1,1 2,2 3,3 0,2 1,3 1,5 0,2 -1,4 -3,6 -1,1 -3,3 -6,4 -3,1 -6,2 -9,3 -4,1 -8,1 -12,1l0 1c0,3 0,6 1,8 1,2 2,4 3,6 1,2 3,3 5,4 1,1 3,1 5,1 2,0 5,0 7,-1 2,-1 4,-3 6,-5zm-6 -27c0,-1 0,-2 -1,-3 0,-1 -1,-2 -1,-2 -1,-1 -2,-1 -2,-2 -1,0 -2,0 -3,0 -2,0 -3,0 -4,0 -1,1 -3,2 -4,3 -1,0 -1,1 -2,3 -1,1 -1,2 -2,3 0,2 -1,3 -1,4 -1,2 -1,3 -1,5 3,-1 6,-1 9,-2 2,0 5,-1 6,-2 2,-1 4,-2 4,-3 1,-1 2,-2 2,-4z"/>
   <path id="26" class="fil16" d="M1665 1390l0 0c0,-2 0,-4 0,-7 0,-2 0,-5 0,-7 1,-3 1,-5 1,-8 0,-3 0,-5 0,-7 0,-2 0,-4 0,-6 0,-2 0,-3 0,-4 0,-1 0,-2 0,-2 0,-1 0,-1 0,-2 0,0 -1,-1 -1,-1 -1,0 -1,0 -2,0 -1,0 -1,0 -1,0 -1,0 -1,0 -2,0 0,0 -1,0 -1,1 -1,0 -2,0 -3,0l0 -2c4,-2 7,-3 9,-3 3,-1 4,-1 5,-1 1,0 3,0 3,1 1,1 1,2 1,4 0,0 0,1 0,2 0,0 0,1 0,3 0,1 0,2 0,4 -1,1 -1,3 -1,5 0,2 0,4 0,6 0,2 -1,4 -1,6l0 0c2,-5 3,-9 4,-13 2,-3 3,-7 5,-9 2,-3 4,-5 6,-7 2,-2 4,-2 6,-2 1,0 2,0 3,0 1,0 1,1 2,1 0,1 1,1 1,2 0,0 1,1 1,2 0,1 -1,2 -1,3 -1,1 -1,2 -2,2l0 0c-1,0 -2,-1 -3,-1 -1,-1 -2,-1 -3,-1 -1,0 -2,0 -3,1 -1,0 -2,1 -3,1 -1,2 -2,3 -3,5 -1,2 -2,4 -3,6 -1,3 -2,5 -3,8 -1,2 -1,5 -2,7 0,3 -1,5 -1,7 0,2 -1,4 -1,5l-7 1z"/>
   <path id="27" class="fil16" d="M1714 1391c-1,-3 -1,-5 -2,-7 0,-3 0,-5 -1,-7 0,-3 -1,-5 -1,-7 -1,-3 -1,-5 -2,-7 0,-2 -1,-4 -1,-6 -1,-2 -1,-3 -2,-5 0,-1 -1,-2 -1,-3 0,-1 -1,-1 -1,-2 -1,0 -1,-1 -2,-1 0,0 -1,0 -1,0 -1,0 -2,0 -3,0 0,0 -1,0 -3,1l0 -3c1,0 3,-1 4,-1 1,0 2,-1 4,-1 1,0 2,-1 3,-1 0,0 1,0 2,0 0,0 1,0 1,0 1,0 1,1 2,1 0,1 1,2 1,2 1,1 1,2 1,4 1,1 1,2 2,3 0,2 0,3 1,5 0,2 1,4 1,6 1,2 1,4 1,7 1,2 1,4 2,7 0,2 0,4 1,6 1,-1 2,-3 3,-5 1,-1 2,-3 3,-5 2,-2 3,-4 3,-5 1,-2 2,-4 3,-6 1,-2 1,-3 1,-5 1,-2 1,-3 1,-5 0,-2 0,-4 -1,-6 -1,-2 -2,-3 -4,-4l1 -1c0,0 0,0 1,0 0,0 1,0 1,0 3,0 5,0 7,2 2,1 2,3 2,6 0,2 0,4 -1,6 -1,3 -2,5 -3,8 -2,2 -3,5 -5,8 -2,3 -3,5 -5,8 -2,2 -4,5 -5,7 -2,2 -3,4 -5,6l-3 0z"/>
   <path id="28" class="fil16" d="M1781 1379c0,0 0,0 1,0 0,0 0,1 0,1 0,0 0,0 1,0 0,0 0,1 0,1 0,0 0,0 0,0 -2,2 -3,3 -4,4 -2,2 -3,3 -5,4 -2,1 -3,1 -5,2 -2,0 -3,0 -5,0 -3,0 -5,0 -7,-1 -3,-2 -5,-3 -6,-5 -2,-2 -3,-4 -4,-7 -1,-2 -2,-5 -2,-8 0,-2 1,-5 1,-7 1,-2 2,-5 3,-7 1,-2 2,-4 3,-6 2,-2 3,-3 5,-5 2,-1 4,-2 7,-3 2,-1 4,-1 7,-1 1,0 3,0 5,0 1,1 2,2 4,2 1,1 2,2 2,3 1,2 1,3 1,5 0,2 0,4 -2,6 -1,1 -4,3 -6,4 -3,1 -6,2 -10,3 -3,1 -7,1 -11,1l0 1c0,3 0,6 1,8 0,2 1,4 3,6 1,2 3,3 4,4 2,1 4,1 6,1 2,0 4,0 6,-1 3,-1 5,-3 7,-5zm-6 -27c0,-1 -1,-2 -1,-3 0,-1 -1,-2 -1,-2 -1,-1 -2,-1 -3,-2 -1,0 -2,0 -3,0 -1,0 -2,0 -4,0 -1,1 -2,2 -3,3 -1,0 -2,1 -2,3 -1,1 -2,2 -2,3 -1,2 -1,3 -2,4 0,2 0,3 0,5 3,-1 6,-1 9,-2 2,0 4,-1 6,-2 2,-1 3,-2 4,-3 1,-1 2,-2 2,-4z"/>
   <path id="29" class="fil16" d="M1795 1377c0,2 0,3 1,5 1,1 2,2 3,3 1,0 2,1 4,1 1,1 2,1 4,1 1,0 2,0 3,0 1,-1 2,-1 3,-2 1,-1 2,-1 3,-2 0,-1 0,-2 0,-3 0,-2 0,-3 -1,-3 0,-1 -1,-2 -2,-3 -1,-1 -2,-1 -3,-2 -1,-1 -3,-1 -4,-2 -1,0 -3,-1 -4,-2 -1,0 -2,-1 -3,-1 -2,-1 -3,-2 -4,-3 -1,0 -1,-1 -2,-2 -1,-1 -2,-2 -2,-3 0,-2 -1,-3 -1,-4 0,-2 1,-3 1,-5 1,-1 2,-2 2,-3 1,-1 3,-2 4,-3 1,-1 2,-1 4,-2 1,0 3,-1 4,-1 2,0 3,0 5,0 1,0 3,0 5,0 1,1 3,1 4,2 1,1 2,2 3,3 1,1 1,2 1,3 0,1 0,1 0,2 0,1 -1,1 -1,2 -1,0 -1,1 -2,1 -1,0 -1,1 -2,1 -1,0 -2,-1 -3,-1l-1 0c1,-1 1,-2 1,-2 0,-1 0,-1 0,-2 0,-1 0,-2 -1,-2 0,-1 -1,-2 -1,-2 -1,-1 -2,-1 -3,-1 -1,0 -2,0 -3,0 -1,0 -3,0 -4,0 -1,1 -3,1 -3,2 -1,1 -2,1 -3,2 0,1 0,2 0,3 0,1 0,2 1,3 0,1 1,2 2,3 2,1 3,2 4,2 2,1 3,2 5,3 1,0 3,1 5,2 2,1 3,2 5,3 1,1 2,2 3,4 1,1 1,3 1,5 0,2 0,4 -1,6 -2,2 -3,3 -5,4 -1,2 -3,3 -6,3 -2,1 -4,1 -7,1 -1,0 -2,0 -3,0 -2,0 -3,-1 -4,-1 -1,0 -3,-1 -4,-1 -1,-1 -2,-1 -3,-2 0,-1 -1,-1 -1,-2 -1,-1 -1,-2 -1,-3 0,-1 0,-2 0,-2 1,-1 1,-1 2,-2 0,0 1,0 2,-1 1,0 2,0 2,0l1 0z"/>
   <path id="30" class="fil17 str0" d="M361 1323c0,-1 0,-2 0,-3 -1,0 -1,-1 -1,-1 -1,-1 -1,-1 -2,-1 -1,0 -2,-1 -3,-1 -1,0 -3,1 -6,1l0 -3c2,0 5,-1 7,-1 3,-1 5,-1 8,-1 3,-1 5,-1 8,-1 3,0 5,-1 8,-1 3,0 6,1 9,1 3,1 6,2 8,3 2,2 4,4 5,6 1,2 2,5 2,9 0,4 -1,8 -2,11 -2,3 -4,6 -6,8 -3,2 -6,4 -9,5 -4,1 -8,2 -12,2 -1,0 -2,0 -2,0 -1,-1 -1,-1 -1,-2l0 -1c0,0 0,0 0,0 4,0 7,-1 9,-1 2,-1 4,-2 6,-3 2,-1 3,-2 4,-4 1,-1 2,-3 2,-4 1,-2 1,-3 1,-5 0,-1 1,-3 1,-4 0,-3 -1,-6 -2,-8 -1,-2 -2,-4 -4,-5 -1,-1 -3,-2 -5,-3 -2,0 -5,-1 -7,-1 -1,0 -2,0 -4,0 -1,1 -2,1 -3,1 0,2 0,4 0,7 0,3 -1,6 -1,10 0,3 0,8 0,12 0,5 0,9 0,14 -1,5 -1,10 -1,15 0,5 0,10 0,15l-8 1 -1 0c0,-6 0,-12 1,-18 0,-6 0,-11 0,-17 0,-5 1,-11 1,-16 0,-5 0,-11 0,-16z"/>
   <path id="31" class="fil17 str0" d="M416 1390l-1 0c0,-2 1,-4 1,-7 0,-2 0,-5 0,-7 0,-3 0,-5 0,-8 1,-3 1,-5 1,-7 0,-2 0,-4 0,-6 0,-2 0,-3 0,-4 0,-1 0,-2 0,-2 0,-1 0,-1 -1,-2 0,0 0,-1 -1,-1 0,0 -1,0 -1,0 -1,0 -1,0 -2,0 0,0 -1,0 -1,0 -1,0 -1,0 -2,1 0,0 -1,0 -2,0l0 -2c3,-2 6,-3 9,-3 2,-1 4,-1 5,-1 1,0 2,0 3,1 0,1 1,2 1,4 0,0 0,1 0,2 0,0 0,1 0,3 -1,1 -1,2 -1,4 0,1 0,3 0,5 0,2 0,4 -1,6 0,2 0,4 0,6l0 0c1,-5 2,-9 4,-13 1,-3 3,-7 5,-9 1,-3 3,-5 5,-7 2,-2 5,-2 7,-2 1,0 2,0 2,0 1,0 2,1 2,1 1,1 1,1 2,2 0,0 0,1 0,2 0,1 0,2 0,3 -1,1 -2,2 -3,2l0 0c-1,0 -2,-1 -3,-1 0,-1 -1,-1 -2,-1 -1,0 -2,0 -3,1 -1,0 -2,1 -3,1 -1,2 -2,3 -4,5 -1,2 -2,4 -3,6 -1,3 -1,5 -2,8 -1,2 -2,5 -2,7 -1,3 -1,5 -1,7 -1,2 -1,4 -1,5l-7 1z"/>
   <path id="32" class="fil17 str0" d="M450 1370c0,-2 1,-4 1,-7 1,-2 1,-4 2,-7 1,-2 2,-4 4,-6 1,-2 3,-3 5,-5 1,-1 3,-2 6,-3 2,-1 4,-1 7,-1 3,0 5,0 8,1 2,2 4,3 5,5 2,2 3,5 4,7 1,3 1,5 1,8 0,2 0,4 -1,7 0,2 -1,4 -2,6 -1,3 -2,5 -3,7 -2,1 -3,3 -5,5 -2,1 -4,2 -6,3 -2,1 -5,1 -7,1 -3,0 -6,0 -8,-2 -3,-1 -4,-2 -6,-4 -1,-2 -3,-5 -3,-7 -1,-3 -2,-5 -2,-8zm9 -3c0,1 0,3 0,5 0,1 1,3 1,4 1,2 1,3 2,4 1,1 2,3 3,3 1,1 2,2 3,3 1,0 3,1 4,1 2,0 3,-1 5,-2 1,0 2,-1 3,-2 1,-2 2,-3 2,-4 1,-2 1,-3 2,-5 0,-2 0,-3 1,-5 0,-1 0,-3 0,-4 0,-2 0,-3 -1,-5 0,-1 0,-3 -1,-4 0,-2 -1,-3 -2,-4 0,-2 -1,-3 -2,-4 -1,-1 -2,-1 -4,-2 -1,0 -2,-1 -4,-1 -2,0 -3,1 -4,1 -2,1 -3,2 -4,3 -1,1 -1,3 -2,4 -1,2 -1,3 -1,5 -1,1 -1,3 -1,5 0,1 0,3 0,4z"/>
   <path id="33" class="fil17 str0" d="M513 1391c0,-3 -1,-5 -1,-7 -1,-3 -1,-5 -2,-7 0,-3 -1,-5 -1,-7 -1,-3 -1,-5 -2,-7 0,-2 -1,-4 -1,-6 -1,-2 -1,-3 -1,-5 -1,-1 -1,-2 -2,-3 0,-1 0,-1 -1,-2 0,0 -1,-1 -1,-1 -1,0 -1,0 -2,0 -1,0 -2,0 -2,0 -1,0 -2,0 -3,1l-1 -3c2,0 3,-1 4,-1 1,0 3,-1 4,-1 1,0 2,-1 3,-1 1,0 1,0 2,0 0,0 1,0 2,0 0,0 1,1 1,1 1,1 1,2 1,2 1,1 1,2 2,4 0,1 0,2 1,3 0,2 1,3 1,5 1,2 1,4 1,6 1,2 1,4 2,7 0,2 1,4 1,7 0,2 1,4 1,6 1,-1 2,-3 3,-5 2,-1 3,-3 4,-5 1,-2 2,-4 3,-5 1,-2 1,-4 2,-6 1,-2 1,-3 2,-5 0,-2 0,-3 0,-5 0,-2 0,-4 -1,-6 0,-2 -2,-3 -3,-4l0 -1c0,0 1,0 1,0 1,0 1,0 1,0 3,0 6,0 7,2 2,1 3,3 3,6 0,2 -1,4 -2,6 0,3 -2,5 -3,8 -1,2 -3,5 -5,8 -1,3 -3,5 -5,8 -2,2 -3,5 -5,7 -2,2 -3,4 -5,6l-3 0z"/>
   <path id="34" class="fil17 str0" d="M555 1327c-1,0 -1,0 -2,0 0,-1 -1,-1 -1,-2 -1,0 -1,-1 -1,-2 -1,0 -1,-1 -1,-2 0,-1 0,-2 1,-2 0,-1 1,-2 1,-2 1,-1 1,-1 2,-1 1,-1 1,-1 2,-1 1,0 1,0 2,1 1,0 1,0 2,1 0,0 0,1 1,1 0,1 0,2 0,3 0,0 0,1 0,2 -1,1 -1,1 -2,2 0,1 -1,1 -1,1 -1,1 -2,1 -3,1zm3 15c0,3 0,5 -1,8 0,2 0,5 0,7 -1,3 -1,5 -1,7 0,2 0,4 0,6 0,2 0,4 0,6 0,2 0,3 1,4 0,1 0,2 0,3 0,1 1,1 1,1 0,1 1,1 1,1 1,0 1,0 2,0 1,0 2,0 3,0 2,-1 3,-1 4,-2l1 2c-1,1 -2,2 -3,2 -1,1 -3,1 -4,2 -1,1 -3,1 -4,1 -1,1 -3,1 -4,1 0,0 -1,0 -1,0 -1,0 -1,-1 -2,-1 0,0 -1,-1 -1,-2 0,-1 0,-2 -1,-3 0,-1 0,-3 0,-5 0,-2 0,-4 0,-7 0,-2 0,-4 0,-6 0,-2 0,-4 0,-7 0,-2 0,-5 0,-8 0,-2 0,-5 1,-8 0,0 0,-1 0,-1 0,-1 1,-1 1,-1 1,-1 1,-1 2,-1 0,0 1,0 1,0 1,0 3,0 4,1z"/>
   <path id="35" class="fil17 str0" d="M622 1299c-1,6 -2,12 -3,18 0,6 -1,12 -2,18 0,5 -1,11 -1,17 0,6 -1,11 -1,16 0,3 0,5 1,7 0,2 0,3 0,5 0,1 0,2 0,3 1,0 1,1 1,1 0,1 1,1 1,1 1,0 1,0 2,0 1,0 2,0 3,0 2,-1 3,-1 4,-2l1 2c-1,1 -2,2 -3,2 -1,1 -3,1 -4,2 -1,1 -3,1 -4,1 -1,1 -3,1 -4,1 0,0 -1,0 -1,0 -1,-1 -1,-1 -2,-1 0,-1 -1,-1 -1,-2 0,0 0,-1 0,-2 -1,-2 -1,-3 -1,-5 0,-2 0,-4 0,-6 0,-2 0,-4 0,-7 0,-2 1,-4 1,-7l0 0c-2,5 -4,9 -6,13 -2,3 -4,7 -6,9 -3,3 -5,5 -7,6 -2,2 -4,2 -7,2 -2,0 -3,0 -5,-1 -1,-1 -3,-3 -4,-4 0,-2 -1,-4 -2,-6 0,-2 0,-4 0,-7 0,-2 0,-5 1,-8 0,-3 1,-5 2,-7 1,-3 3,-5 4,-7 2,-2 4,-4 6,-5 2,-2 4,-3 6,-4 3,-1 5,-1 8,-1 2,0 4,0 5,1 2,0 4,1 6,2 0,-4 0,-8 0,-12 0,-4 1,-8 1,-11 0,-4 0,-8 0,-11 1,-3 1,-6 1,-9 0,0 1,-1 1,-1 0,-1 1,-1 1,-1 1,0 1,0 2,-1 0,0 1,0 1,0 2,0 3,1 5,1zm-13 48c-3,-2 -6,-3 -9,-3 -2,0 -4,1 -6,2 -2,0 -4,1 -5,2 -2,2 -3,3 -4,5 -1,1 -2,3 -3,5 0,2 -1,4 -1,6 -1,2 -1,4 -1,6 0,1 0,1 0,2 0,1 0,2 1,3 0,1 0,2 0,3 1,1 1,2 1,3 1,1 2,1 2,2 1,0 2,0 3,0 1,0 3,0 5,-2 1,-1 3,-2 5,-4 1,-2 3,-5 4,-7 2,-3 3,-5 4,-8 1,-3 2,-5 3,-8 1,-3 1,-5 1,-7z"/>
   <path id="36" class="fil17 str0" d="M642 1327c-1,0 -2,0 -2,0 -1,-1 -1,-1 -2,-2 0,0 -1,-1 -1,-2 0,0 0,-1 0,-2 0,-1 0,-2 0,-2 1,-1 1,-2 2,-2 0,-1 1,-1 2,-1 0,-1 1,-1 2,-1 0,0 1,0 2,1 0,0 1,0 1,1 1,0 1,1 1,1 0,1 1,2 1,3 0,0 -1,1 -1,2 0,1 0,1 -1,2 0,1 -1,1 -2,1 0,1 -1,1 -2,1zm3 15c0,3 -1,5 -1,8 0,2 -1,5 -1,7 0,3 0,5 0,7 0,2 0,4 0,6 0,2 0,4 0,6 0,2 0,3 0,4 0,1 1,2 1,3 0,1 0,1 1,1 0,1 0,1 1,1 0,0 1,0 2,0 1,0 2,0 3,0 1,-1 3,-1 4,-2l1 2c-1,1 -2,2 -4,2 -1,1 -2,1 -3,2 -2,1 -3,1 -4,1 -2,1 -3,1 -4,1 -1,0 -1,0 -2,0 0,0 -1,-1 -1,-1 -1,0 -1,-1 -1,-2 -1,-1 -1,-2 -1,-3 0,-1 0,-3 -1,-5 0,-2 0,-4 0,-7 0,-2 0,-4 0,-6 0,-2 0,-4 0,-7 1,-2 1,-5 1,-8 0,-2 0,-5 0,-8 0,0 0,-1 1,-1 0,-1 0,-1 1,-1 0,-1 1,-1 1,-1 1,0 1,0 2,0 1,0 3,0 4,1z"/>
   <path id="37" class="fil17 str0" d="M665 1351c0,-1 0,-2 0,-3 0,0 -1,-1 -1,-1 0,0 -1,-1 -1,-1 0,0 -1,0 -2,0 0,0 -1,0 -3,0 -1,1 -2,1 -3,1l-1 -2c2,-1 3,-1 5,-2 1,0 3,-1 4,-1 1,0 2,-1 3,-1 1,0 2,0 2,0 2,0 3,0 4,1 0,1 1,2 1,4 0,0 0,1 0,2 0,1 0,2 -1,3 0,1 0,3 0,4 0,2 0,4 0,5 0,2 -1,4 -1,6 0,2 0,4 0,6l0 0c2,-6 3,-11 5,-15 2,-4 5,-7 7,-9 2,-3 4,-5 6,-6 2,-1 4,-1 6,-1 1,0 2,0 3,0 1,1 3,2 3,3 1,1 2,2 3,4 0,1 1,3 1,5 0,1 -1,2 -1,3 0,1 0,3 0,4 0,1 0,3 0,4 0,2 -1,3 -1,5 0,1 0,3 0,4 0,2 0,3 0,4 0,2 0,3 0,4 0,1 1,2 1,3 0,0 1,1 1,1 1,0 2,0 2,0 2,0 3,0 4,0 1,-1 3,-1 4,-2l1 2c-1,1 -2,2 -4,2 -1,1 -2,1 -4,2 -1,1 -2,1 -4,1 -1,1 -2,1 -3,1 -2,0 -3,0 -3,-1 -1,-1 -1,-2 -2,-3 0,-1 0,-2 0,-4 -1,-1 -1,-3 -1,-4 0,-3 0,-5 1,-7 0,-2 0,-4 0,-6 0,-2 0,-4 1,-6 0,-1 0,-3 0,-4 0,-2 -1,-4 -2,-6 -1,-1 -2,-1 -4,-1 -1,0 -2,0 -4,1 -1,1 -3,3 -4,5 -2,2 -3,4 -5,7 -1,2 -2,5 -3,8 -1,3 -2,6 -3,9 -1,4 -1,7 -1,10l-7 1 -1 0c0,-2 0,-4 1,-7 0,-2 0,-5 0,-7 0,-3 0,-5 0,-8 1,-3 1,-5 1,-7 0,-2 0,-4 0,-6 0,-2 0,-3 0,-4z"/>
   <path id="38" class="fil17 str0" d="M756 1348c1,1 2,3 2,4 1,2 1,4 1,6 0,1 0,3 -1,5 0,1 -1,3 -2,5 -1,1 -2,2 -3,4 -1,1 -3,2 -4,3 -2,1 -4,2 -5,2 -2,1 -4,1 -6,1 0,0 -1,0 -1,0 -1,0 -1,0 -2,0 -1,0 -2,0 -2,0 -1,1 -1,1 -2,1 0,1 -1,1 -1,2 0,0 -1,1 -1,1 0,1 1,2 2,3 0,1 2,1 3,2 1,0 3,1 4,1 2,0 4,1 6,1 2,1 3,1 5,1 2,1 3,1 5,2 1,0 3,1 4,1 1,1 2,2 3,3 1,1 2,2 3,3 0,1 0,2 0,4 0,2 0,4 -1,5 0,2 -1,4 -3,5 -1,2 -3,3 -4,5 -2,1 -4,2 -6,3 -3,1 -5,2 -7,2 -3,1 -5,1 -8,1 -2,0 -3,0 -5,0 -1,-1 -3,-1 -5,-1 -1,-1 -3,-1 -4,-2 -2,-1 -3,-2 -4,-3 -1,-1 -2,-2 -3,-3 -1,-2 -1,-3 -1,-5 0,-1 0,-3 1,-4 0,-1 1,-3 2,-4 0,-1 1,-2 2,-3 2,-1 3,-2 4,-3 1,0 2,-1 4,-2 1,0 2,-1 3,-1l0 0c-1,0 -1,-1 -2,-1 -1,-1 -2,-1 -2,-2 -1,-1 -2,-1 -2,-2 0,-1 -1,-2 -1,-3 0,-1 1,-2 1,-3 1,-1 1,-2 2,-2 1,-1 2,-2 3,-2 1,-1 2,-1 3,-1 -2,-1 -4,-2 -5,-3 -1,-1 -2,-2 -3,-4 -1,-1 -2,-2 -3,-4 0,-2 0,-3 0,-5 0,-3 0,-6 1,-8 2,-3 3,-5 5,-7 2,-1 4,-3 7,-4 3,-1 5,-1 8,-1 1,0 2,0 3,0 1,0 2,0 3,0 1,1 1,1 2,1 1,1 1,1 2,1 1,0 2,1 2,1 1,0 2,1 3,1 1,0 2,0 3,-1 1,0 2,0 2,-1 1,-1 1,-1 2,-2 0,-1 0,-2 0,-3 0,0 0,0 0,0 0,0 0,0 0,-1l1 0c1,1 2,2 3,3 1,1 1,2 1,3 0,1 0,2 0,2 0,1 -1,1 -2,2 0,0 -1,1 -2,1 -1,0 -2,0 -3,0 -1,0 -3,0 -5,-1l0 1zm-23 46c-1,1 -3,2 -4,2 -2,1 -3,2 -4,3 -1,1 -2,3 -3,4 -1,2 -1,3 -1,5 0,2 1,4 2,6 1,1 2,2 3,3 2,2 4,2 6,3 1,0 3,0 5,0 3,0 5,0 7,-1 3,0 5,-1 6,-3 2,-1 4,-3 5,-4 1,-2 1,-4 1,-6 0,-2 0,-3 -1,-3 0,-1 -1,-2 -2,-3 -1,0 -2,-1 -3,-1 -1,-1 -2,-1 -4,-2 -2,0 -4,-1 -6,-1 -2,0 -4,-1 -7,-2zm7 -20c2,0 3,0 4,0 1,-1 2,-1 2,-2 1,-1 2,-2 2,-3 1,0 1,-1 2,-2 0,-1 0,-3 1,-4 0,-1 0,-2 0,-3 0,-1 0,-2 -1,-3 0,-2 0,-3 -1,-4 0,-1 -1,-2 -1,-3 -1,-1 -2,-2 -3,-3 0,-1 -1,-1 -3,-2 -1,0 -2,-1 -3,-1 -2,0 -3,1 -4,1 -1,0 -2,1 -3,2 -1,0 -1,1 -2,2 0,1 -1,2 -1,3 0,1 -1,2 -1,3 0,1 0,2 0,3 0,1 0,3 0,4 0,1 1,2 1,4 1,1 1,2 2,3 1,1 1,2 2,3 1,0 2,1 4,2 1,0 2,0 3,0z"/>
   <path id="39" class="fil17 str0" d="M805 1323c0,-1 0,-2 0,-3 0,-1 -1,-1 -1,-2 0,0 -1,0 -2,-1 0,0 -1,0 -2,0 -1,0 -2,0 -3,0 -1,0 -2,0 -3,1l-1 -3c4,-1 6,-2 9,-2 2,-1 4,-1 6,-1 1,0 3,0 3,1 1,0 2,1 2,2 1,0 1,1 1,2 0,2 0,3 0,4 0,0 0,1 0,2 0,2 0,4 0,6 0,2 0,5 0,8 -1,3 -1,6 -1,10 0,3 0,6 0,10 0,4 0,7 -1,10 0,4 0,7 0,10 0,3 0,6 -1,8 2,0 5,-1 7,-1 1,0 3,0 5,0 2,0 5,0 7,0 2,0 4,0 6,0 1,0 2,0 3,0 1,-1 2,-1 3,-2 1,-1 2,-3 2,-4 1,-2 1,-4 1,-7l3 0c0,4 0,8 0,10 -1,3 -2,5 -2,6 -1,2 -2,3 -4,3 -1,1 -2,1 -4,1 -1,0 -2,0 -4,0 -1,-1 -3,-1 -5,-1 -1,0 -3,-1 -5,-1 -2,0 -5,0 -7,0 -2,0 -4,0 -7,0 -2,0 -5,1 -7,1l-1 0c1,-3 1,-6 1,-9 0,-4 1,-8 1,-11 0,-4 0,-8 0,-12 1,-4 1,-8 1,-12 0,-4 0,-8 0,-12 0,-4 0,-8 0,-11z"/>
   <path id="40" class="fil17 str0" d="M864 1327c-1,0 -2,0 -2,0 -1,-1 -1,-1 -2,-2 0,0 -1,-1 -1,-2 0,0 0,-1 0,-2 0,-1 0,-2 0,-2 1,-1 1,-2 2,-2 0,-1 1,-1 1,-1 1,-1 2,-1 2,-1 1,0 2,0 2,1 1,0 2,0 2,1 1,0 1,1 1,1 0,1 0,2 0,3 0,0 0,1 0,2 0,1 -1,1 -1,2 -1,1 -1,1 -2,1 -1,1 -1,1 -2,1zm3 15c-1,3 -1,5 -1,8 0,2 -1,5 -1,7 0,3 0,5 0,7 0,2 0,4 0,6 0,2 0,4 0,6 0,2 0,3 0,4 0,1 0,2 1,3 0,1 0,1 1,1 0,1 0,1 1,1 0,0 1,0 1,0 2,0 3,0 4,0 1,-1 3,-1 4,-2l0 2c0,1 -1,2 -3,2 -1,1 -2,1 -4,2 -1,1 -2,1 -4,1 -1,1 -2,1 -3,1 -1,0 -1,0 -2,0 0,0 -1,-1 -1,-1 -1,0 -1,-1 -1,-2 -1,-1 -1,-2 -1,-3 0,-1 -1,-3 -1,-5 0,-2 0,-4 0,-7 0,-2 0,-4 0,-6 0,-2 0,-4 0,-7 0,-2 1,-5 1,-8 0,-2 0,-5 0,-8 0,0 0,-1 1,-1 0,-1 0,-1 1,-1 0,-1 1,-1 1,-1 1,0 1,0 1,0 2,0 3,0 5,1z"/>
   <path id="41" class="fil17 str0" d="M895 1343c1,0 3,0 4,0 1,0 2,0 3,1 1,0 1,0 2,0 1,0 2,0 2,0 1,0 2,0 3,-1 1,0 2,0 2,0 1,1 1,2 1,2 0,1 -1,2 -1,2 -1,1 -2,1 -4,1 -2,0 -3,0 -5,-1 -2,0 -4,0 -7,0 0,3 0,6 0,9 0,3 0,6 -1,9 0,4 0,7 0,11 -1,3 -1,6 -2,10 0,3 -1,6 -1,9 -1,3 -2,6 -3,8 -1,4 -2,7 -4,10 -2,2 -4,4 -6,6 -1,2 -3,3 -5,3 -3,1 -5,1 -7,1 -1,0 -3,0 -5,0 -1,-1 -2,-1 -3,-2 -2,0 -2,-1 -3,-2 -1,-1 -1,-2 -1,-3 0,0 0,-1 0,-1 1,-1 1,-1 1,-2 1,0 1,0 2,-1 1,0 1,0 2,0 1,1 1,2 2,3 1,1 2,1 3,2 1,0 2,1 3,1 1,0 2,0 3,0 2,0 5,0 6,-2 2,-2 4,-4 5,-7 1,-3 2,-7 3,-11 1,-5 1,-9 2,-15 0,-5 0,-11 0,-17 0,-6 1,-12 1,-19 -3,0 -5,0 -6,0 -2,0 -4,0 -5,1 0,0 0,0 0,-1 0,0 0,-1 1,-1 0,-1 1,-1 2,-1 1,-1 2,-1 3,-1 2,0 3,-1 5,-1 0,-2 0,-4 0,-6 0,-2 0,-4 1,-5 0,-2 0,-4 0,-6 1,-2 1,-4 2,-6 0,-2 1,-5 2,-7 1,-2 2,-4 3,-6 2,-1 3,-3 4,-4 2,-1 3,-2 5,-3 1,0 3,-1 5,-1 1,-1 3,-1 4,-1 3,0 4,1 6,1 2,1 3,1 5,2 1,1 2,2 2,4 1,1 1,2 1,3 0,1 0,2 0,3 0,0 -1,1 -1,1 -1,1 -2,1 -2,2 -1,0 -2,0 -3,0 -1,0 -2,0 -3,-1l0 0c0,-1 1,-2 1,-3 0,0 0,-1 0,-2 0,-1 0,-2 0,-3 -1,-1 -1,-1 -2,-2 -1,0 -2,-1 -3,-1 0,0 -1,0 -2,0 -3,0 -5,0 -7,2 -1,1 -3,2 -4,4 -1,2 -2,4 -3,7 -1,3 -1,6 -2,9 0,3 0,6 0,9 0,4 -1,7 -1,10z"/>
   <path id="42" class="fil17 str0" d="M946 1379c0,0 0,0 0,0 0,0 1,1 1,1 0,0 0,0 0,0 0,0 1,1 1,1 0,0 0,0 -1,0 -1,2 -2,3 -4,4 -1,2 -3,3 -4,4 -2,1 -4,1 -5,2 -2,0 -3,0 -5,0 -3,0 -5,0 -8,-1 -2,-2 -4,-3 -6,-5 -1,-2 -2,-4 -3,-7 -1,-2 -2,-5 -2,-8 0,-2 0,-5 1,-7 1,-2 1,-5 2,-7 1,-2 3,-4 4,-6 2,-2 3,-3 5,-5 2,-1 4,-2 6,-3 2,-1 5,-1 7,-1 2,0 4,0 5,0 2,1 3,2 4,2 2,1 2,2 3,3 1,2 1,3 1,5 0,2 -1,4 -2,6 -2,1 -4,3 -6,4 -3,1 -6,2 -10,3 -4,1 -8,1 -12,1l0 1c0,3 1,6 1,8 1,2 2,4 3,6 2,2 3,3 5,4 2,1 4,1 6,1 2,0 4,0 6,-1 2,-1 5,-3 7,-5zm-7 -27c0,-1 0,-2 0,-3 -1,-1 -1,-2 -2,-2 0,-1 -1,-1 -2,-2 -1,0 -2,0 -3,0 -1,0 -3,0 -4,0 -1,1 -2,2 -3,3 -1,0 -2,1 -3,3 0,1 -1,2 -2,3 0,2 -1,3 -1,4 0,2 0,3 -1,5 4,-1 7,-1 9,-2 3,0 5,-1 7,-2 2,-1 3,-2 4,-3 1,-1 1,-2 1,-4z"/>
   <path id="43" class="fil17 str0" d="M997 1317c-1,4 -2,8 -3,13 0,5 -1,9 -2,13 2,0 3,1 4,1 1,0 2,0 2,0 1,0 2,0 3,0 1,0 1,0 2,0 2,0 3,0 5,-1 0,1 0,1 0,1 0,1 0,1 0,1 0,1 0,2 -1,2 -1,0 -2,1 -4,1 -1,0 -3,-1 -5,-1 -2,0 -4,0 -6,0 0,2 0,4 -1,7 0,2 0,4 0,6 0,2 0,4 0,6 0,2 0,3 0,4 0,3 0,5 0,7 0,2 1,3 1,4 1,2 2,3 3,3 1,1 3,2 4,2 2,0 3,-1 5,-1 1,-1 3,-1 5,-2 0,0 1,1 1,2 -2,1 -3,2 -4,3 -2,0 -3,1 -5,1 -1,1 -2,1 -4,2 -1,0 -2,0 -4,0 -1,0 -2,0 -4,-1 -1,0 -2,-1 -3,-3 -1,-1 -2,-3 -2,-5 -1,-3 -1,-6 -1,-9 0,-2 0,-4 0,-7 0,-2 0,-4 0,-6 1,-2 1,-5 1,-7 0,-2 0,-4 0,-6 -1,0 -3,0 -5,0 -1,0 -2,0 -4,1 0,-1 0,-1 0,-1 0,0 1,-1 1,-1 1,-1 1,-1 2,-1 1,-1 2,-1 3,-1 1,0 2,-1 4,-1 0,-4 1,-9 2,-13 0,-4 1,-8 1,-11 0,-1 1,-1 1,-2 0,0 1,0 1,0 1,-1 1,-1 1,-1 1,0 1,0 2,0 1,0 1,0 2,0 0,0 1,1 2,1z"/>
   <path id="44" class="fil17 str0" d="M1023 1372c2,-6 4,-11 6,-15 2,-4 4,-7 6,-9 2,-3 4,-5 6,-6 2,-1 4,-1 6,-1 1,0 3,0 4,0 1,1 2,2 3,3 1,1 2,2 2,3 1,2 1,4 1,6 0,1 0,2 0,3 0,1 0,2 0,4 0,1 -1,3 -1,4 0,2 0,3 0,5 0,1 0,3 0,4 -1,2 -1,3 -1,4 0,2 1,3 1,4 0,1 0,2 0,3 1,0 1,1 2,1 0,0 1,0 2,0 1,0 2,0 4,0 1,-1 2,-1 3,-2l1 2c-1,1 -2,2 -3,2 -1,1 -3,1 -4,2 -1,1 -3,1 -4,1 -1,1 -3,1 -4,1 -1,0 -2,0 -3,-1 0,-1 -1,-2 -1,-3 -1,-1 -1,-2 -1,-4 0,-1 0,-3 0,-4 0,-3 0,-5 0,-7 0,-2 0,-4 1,-6 0,-2 0,-4 0,-6 0,-2 0,-3 0,-4 0,-2 0,-4 -1,-6 -1,-1 -3,-1 -4,-1 -1,0 -3,0 -4,1 -2,1 -3,3 -5,5 -1,2 -3,4 -4,7 -1,2 -3,5 -4,8 -1,3 -2,6 -2,9 -1,4 -1,7 -2,10l-7 1 -1 0c1,-2 1,-5 1,-8 0,-4 0,-7 0,-11 1,-3 1,-7 1,-11 0,-4 1,-8 1,-12 0,-4 0,-8 0,-12 1,-4 1,-8 1,-12 0,-4 1,-8 1,-12 0,-4 0,-7 0,-11 0,0 1,-1 1,-1 0,-1 0,-1 1,-1 0,0 1,0 2,-1 0,0 1,0 1,0 2,0 3,1 5,1 -1,5 -1,9 -2,13 0,4 0,7 -1,10 0,4 0,7 -1,10 0,2 0,5 0,8 -1,2 -1,5 -1,7 0,3 0,5 -1,8 0,2 0,5 0,8 0,2 -1,5 -1,9l0 0z"/>
   <path id="45" class="fil17 str0" d="M1106 1379c0,0 1,0 1,0 0,0 0,1 0,1 1,0 1,0 1,0 0,0 0,1 0,1 0,0 0,0 0,0 -1,2 -3,3 -4,4 -2,2 -3,3 -5,4 -1,1 -3,1 -5,2 -1,0 -3,0 -5,0 -2,0 -5,0 -7,-1 -2,-2 -4,-3 -6,-5 -2,-2 -3,-4 -4,-7 -1,-2 -1,-5 -1,-8 0,-2 0,-5 1,-7 0,-2 1,-5 2,-7 1,-2 2,-4 4,-6 1,-2 3,-3 5,-5 1,-1 4,-2 6,-3 2,-1 4,-1 7,-1 2,0 3,0 5,0 1,1 3,2 4,2 1,1 2,2 3,3 0,2 1,3 1,5 0,2 -1,4 -3,6 -1,1 -3,3 -6,4 -3,1 -6,2 -9,3 -4,1 -8,1 -12,1l0 1c0,3 0,6 1,8 1,2 2,4 3,6 1,2 3,3 5,4 1,1 3,1 5,1 2,0 5,0 7,-1 2,-1 4,-3 6,-5zm-6 -27c0,-1 0,-2 -1,-3 0,-1 -1,-2 -1,-2 -1,-1 -2,-1 -2,-2 -1,0 -2,0 -3,0 -2,0 -3,0 -4,0 -2,1 -3,2 -4,3 -1,0 -1,1 -2,3 -1,1 -2,2 -2,3 -1,2 -1,3 -1,4 -1,2 -1,3 -1,5 3,-1 6,-1 9,-2 2,0 5,-1 6,-2 2,-1 3,-2 4,-3 1,-1 2,-2 2,-4z"/>
   <path id="46" class="fil17 str0" d="M1179 1310c3,0 5,1 8,1 3,1 5,1 7,2 1,1 3,2 4,3 1,1 2,1 2,2 0,2 0,4 -1,6 0,3 0,6 0,9l-3 0c0,0 0,-1 0,-1 0,0 0,0 0,-1 0,-1 0,-3 -1,-4 0,-2 0,-3 -1,-4 -1,-1 -2,-3 -4,-4 -1,-1 -2,-1 -4,-2 -1,-1 -3,-1 -5,-2 -1,0 -3,0 -5,0 -3,0 -6,0 -8,1 -3,1 -5,3 -7,4 -2,2 -4,4 -5,6 -2,2 -3,5 -4,7 -1,3 -1,6 -2,9 0,3 -1,6 -1,9 0,3 1,6 1,9 1,4 2,6 3,9 1,3 2,5 4,7 1,2 3,4 5,5 2,2 4,3 6,4 3,0 5,1 8,1 1,0 3,0 5,-1 2,0 4,-1 6,-1 1,-1 3,-2 5,-3 2,-2 4,-3 6,-5 0,0 1,0 1,0 0,1 0,1 0,1 1,0 1,0 1,0 0,1 0,1 0,1 0,0 0,0 0,1 -2,2 -5,4 -7,6 -2,1 -5,3 -7,4 -2,1 -4,1 -7,2 -2,0 -5,1 -7,1 -3,0 -6,-1 -9,-2 -3,-1 -5,-2 -8,-3 -2,-2 -4,-4 -6,-6 -2,-2 -4,-5 -5,-8 -1,-2 -3,-5 -3,-9 -1,-3 -1,-6 -1,-10 0,-3 0,-7 1,-10 0,-4 2,-7 3,-11 1,-3 3,-6 5,-9 3,-2 5,-5 8,-7 3,-2 6,-4 10,-5 3,-1 7,-2 12,-2z"/>
   <path id="47" class="fil17 str0" d="M1236 1355c0,-2 0,-3 -1,-5 0,-1 -1,-2 -2,-3 -1,-1 -2,-1 -3,-2 -1,0 -3,0 -4,0 -1,0 -3,0 -4,0 -1,1 -2,1 -3,2 0,0 -1,1 -1,2 0,0 -1,1 -1,2 0,1 1,2 1,3 0,2 1,3 2,4l0 0c-2,1 -3,1 -4,1 -1,0 -2,0 -3,0 0,-1 -1,-1 -1,-1 -1,-1 -1,-1 -1,-2 -1,-1 -1,-1 -1,-2 0,-2 0,-3 1,-4 1,-1 2,-2 3,-3 1,-1 2,-2 3,-3 2,-1 3,-1 5,-2 1,0 3,-1 4,-1 2,0 3,0 5,0 2,0 4,0 6,1 2,0 3,1 4,2 1,2 2,3 2,5 1,1 1,3 1,5 0,2 0,4 0,5 0,2 0,4 -1,6 0,2 0,4 0,6 0,2 0,4 0,6 0,3 0,6 2,7 1,2 2,3 4,3 2,0 4,-1 6,-2l1 1c-1,2 -3,3 -5,4 -1,0 -3,1 -5,1 -2,0 -3,0 -4,-1 -2,0 -3,-1 -4,-2 -1,-1 -1,-2 -2,-4 0,-1 -1,-3 -1,-5 0,-1 0,-1 0,-2 0,0 1,-1 1,-2l-1 0c-1,2 -2,4 -3,6 -1,2 -3,4 -4,5 -2,2 -3,3 -5,4 -2,1 -4,1 -6,1 -1,0 -3,0 -4,-1 -1,0 -2,-1 -3,-2 -1,-1 -2,-2 -3,-3 0,-2 0,-3 0,-4 0,-2 0,-4 1,-6 1,-1 2,-3 3,-4 1,-1 3,-3 5,-3 1,-1 3,-2 6,-3 2,0 4,-1 6,-1 3,0 5,-1 8,-1 0,-1 0,-2 0,-4 0,-1 0,-3 0,-4zm-21 23c0,1 0,2 1,2 0,1 0,2 0,3 1,0 1,1 2,1 1,0 2,1 2,1 1,0 3,-1 4,-1 1,-1 2,-1 3,-2 1,-1 2,-2 3,-3 1,-1 2,-3 3,-4 0,-1 1,-3 1,-4 1,-2 1,-3 2,-5 -2,0 -4,0 -6,0 -1,1 -3,1 -4,1 -2,1 -3,1 -4,2 -2,0 -3,1 -4,2 -1,1 -1,2 -2,3 -1,1 -1,2 -1,4z"/>
   <path id="48" class="fil17 str0" d="M1263 1390l0 0c0,-2 0,-4 0,-7 0,-2 0,-5 1,-7 0,-3 0,-5 0,-8 0,-3 0,-5 0,-7 0,-2 0,-4 0,-6 0,-2 0,-3 0,-4 0,-1 0,-2 0,-2 0,-1 0,-1 0,-2 0,0 -1,-1 -1,-1 -1,0 -1,0 -2,0 0,0 -1,0 -1,0 -1,0 -1,0 -2,0 0,0 -1,0 -1,1 -1,0 -2,0 -3,0l0 -2c4,-2 7,-3 9,-3 3,-1 4,-1 5,-1 2,0 3,0 3,1 1,1 1,2 1,4 0,0 0,1 0,2 0,0 0,1 0,3 0,1 0,2 0,4 0,1 -1,3 -1,5 0,2 0,4 0,6 0,2 -1,4 -1,6l1 0c1,-5 2,-9 3,-13 2,-3 3,-7 5,-9 2,-3 4,-5 6,-7 2,-2 4,-2 6,-2 1,0 2,0 3,0 1,0 1,1 2,1 0,1 1,1 1,2 1,0 1,1 1,2 0,1 -1,2 -1,3 0,1 -1,2 -2,2l0 0c-1,0 -2,-1 -3,-1 -1,-1 -2,-1 -3,-1 -1,0 -2,0 -3,1 -1,0 -2,1 -2,1 -2,2 -3,3 -4,5 -1,2 -2,4 -3,6 -1,3 -2,5 -3,8 0,2 -1,5 -2,7 0,3 -1,5 -1,7 0,2 -1,4 -1,5l-7 1z"/>
   <path id="49" class="fil17 str0" d="M1333 1379c0,0 0,0 1,0 0,0 0,1 0,1 0,0 1,0 1,0 0,0 0,1 0,1 0,0 0,0 0,0 -2,2 -3,3 -4,4 -2,2 -3,3 -5,4 -2,1 -3,1 -5,2 -2,0 -3,0 -5,0 -3,0 -5,0 -7,-1 -3,-2 -5,-3 -6,-5 -2,-2 -3,-4 -4,-7 -1,-2 -2,-5 -2,-8 0,-2 1,-5 1,-7 1,-2 2,-5 3,-7 1,-2 2,-4 3,-6 2,-2 4,-3 5,-5 2,-1 4,-2 7,-3 2,-1 4,-1 7,-1 1,0 3,0 5,0 1,1 2,2 4,2 1,1 2,2 2,3 1,2 1,3 1,5 0,2 0,4 -2,6 -1,1 -3,3 -6,4 -3,1 -6,2 -10,3 -3,1 -7,1 -11,1l0 1c0,3 0,6 1,8 0,2 1,4 3,6 1,2 3,3 4,4 2,1 4,1 6,1 2,0 4,0 6,-1 3,-1 5,-3 7,-5zm-6 -27c0,-1 -1,-2 -1,-3 0,-1 -1,-2 -1,-2 -1,-1 -2,-1 -3,-2 -1,0 -2,0 -3,0 -1,0 -2,0 -4,0 -1,1 -2,2 -3,3 -1,0 -2,1 -2,3 -1,1 -2,2 -2,3 -1,2 -1,3 -2,4 0,2 0,3 0,5 3,-1 6,-1 9,-2 2,0 4,-1 6,-2 2,-1 3,-2 4,-3 1,-1 2,-2 2,-4z"/>
   <path id="50" class="fil17 str0" d="M1375 1323c0,-1 0,-2 0,-3 -1,-1 -1,-1 -1,-2 0,0 -1,0 -2,-1 0,0 -1,0 -2,0 -1,0 -2,0 -3,0 -1,0 -2,0 -4,1l0 -3c3,-1 6,-2 9,-2 2,-1 4,-1 6,-1 1,0 2,0 3,1 1,0 2,1 2,2 0,0 1,1 1,2 0,2 0,3 0,4 0,1 0,2 0,4 0,2 0,5 -1,8 0,4 0,8 0,12 0,4 0,9 0,14 0,5 -1,10 -1,15 0,5 0,10 0,15l-8 1 -1 0c0,-6 0,-12 1,-18 0,-6 0,-11 0,-17 0,-5 1,-10 1,-16 0,-5 0,-11 0,-16z"/>
   <path id="51" class="fil17 str0" d="M1415 1317c-1,4 -2,8 -3,13 0,5 -1,9 -1,13 1,0 2,1 3,1 1,0 2,0 3,0 1,0 1,0 2,0 1,0 1,0 2,0 2,0 4,0 5,-1 0,1 0,1 0,1 0,1 0,1 0,1 0,1 0,2 -1,2 -1,0 -2,1 -4,1 -1,0 -3,-1 -5,-1 -1,0 -3,0 -6,0 0,2 0,4 0,7 -1,2 -1,4 -1,6 0,2 0,4 0,6 0,2 0,3 0,4 0,3 0,5 0,7 1,2 1,3 2,4 0,2 1,3 2,3 1,1 3,2 5,2 1,0 2,-1 4,-1 1,-1 3,-1 5,-2 1,0 1,1 1,2 -1,1 -3,2 -4,3 -2,0 -3,1 -5,1 -1,1 -2,1 -4,2 -1,0 -2,0 -3,0 -2,0 -3,0 -5,-1 -1,0 -2,-1 -3,-3 -1,-1 -1,-3 -2,-5 -1,-3 -1,-6 -1,-9 0,-2 0,-4 0,-7 0,-2 0,-4 1,-6 0,-2 0,-5 0,-7 0,-2 0,-4 1,-6 -2,0 -4,0 -5,0 -2,0 -3,0 -4,1 0,-1 0,-1 0,-1 0,0 0,-1 0,-1 1,-1 1,-1 2,-1 1,-1 2,-1 3,-1 1,0 3,-1 4,-1 1,-4 1,-9 2,-13 0,-4 1,-8 2,-11 0,-1 0,-1 0,-2 0,0 1,0 1,0 1,-1 1,-1 2,-1 0,0 1,0 1,0 1,0 1,0 2,0 1,0 1,1 2,1z"/>
   <path id="52" class="fil17 str0" d="M1473 1316c0,1 0,3 0,5 0,2 0,5 0,8 0,3 0,6 0,9 0,4 0,7 -1,11 0,4 0,7 0,11 0,4 0,7 0,10 0,3 -1,6 -1,9 0,2 0,5 0,6 2,1 4,1 6,1 2,1 4,1 6,1 4,0 7,-1 10,-2 3,-1 6,-2 8,-4 2,-1 4,-3 6,-6 2,-2 3,-5 4,-7 1,-3 2,-6 2,-9 1,-3 1,-7 1,-10 0,-5 -1,-9 -2,-13 -1,-4 -3,-8 -5,-11 -3,-3 -6,-5 -10,-7 -4,-2 -9,-2 -15,-2 -1,0 -3,0 -4,0 -2,0 -3,0 -5,0zm-20 -1c2,-1 5,-1 7,-1 3,-1 5,-1 8,-1 2,-1 5,-1 8,-1 2,0 5,-1 8,-1 3,0 7,1 10,1 3,1 6,1 9,2 3,1 6,3 9,5 2,1 4,3 6,6 2,3 3,6 4,9 1,4 2,8 2,12 0,5 -1,9 -2,12 -1,4 -2,8 -3,11 -2,3 -4,6 -6,9 -3,3 -5,5 -8,7 -3,2 -7,3 -10,4 -4,1 -8,2 -12,2 -2,0 -4,0 -7,-1 -2,0 -4,0 -7,-1l-6 1 -1 0c0,-2 0,-3 0,-6 1,-2 1,-5 1,-8 0,-3 0,-7 0,-11 1,-3 1,-7 1,-12 0,-4 0,-9 0,-14 0,-5 0,-10 0,-15 0,-1 0,-2 0,-3 0,-1 0,-1 -1,-2 0,-1 0,-1 -1,-1 -1,0 -2,-1 -3,-1 -2,0 -4,1 -6,1l0 -3z"/>
   <path id="53" class="fil17 str0" d="M1567 1379c0,0 0,0 1,0 0,0 0,1 0,1 0,0 1,0 1,0 0,0 0,1 0,1 0,0 0,0 0,0 -1,2 -3,3 -4,4 -2,2 -3,3 -5,4 -1,1 -3,1 -5,2 -1,0 -3,0 -5,0 -2,0 -5,0 -7,-1 -2,-2 -4,-3 -6,-5 -2,-2 -3,-4 -4,-7 -1,-2 -1,-5 -1,-8 0,-2 0,-5 0,-7 1,-2 2,-5 3,-7 1,-2 2,-4 3,-6 2,-2 4,-3 5,-5 2,-1 4,-2 7,-3 2,-1 4,-1 7,-1 2,0 3,0 5,0 1,1 3,2 4,2 1,1 2,2 3,3 0,2 1,3 1,5 0,2 -1,4 -3,6 -1,1 -3,3 -6,4 -3,1 -6,2 -10,3 -3,1 -7,1 -11,1l0 1c0,3 0,6 1,8 1,2 2,4 3,6 1,2 3,3 5,4 1,1 3,1 5,1 2,0 4,0 7,-1 2,-1 4,-3 6,-5zm-6 -27c0,-1 0,-2 -1,-3 0,-1 -1,-2 -1,-2 -1,-1 -2,-1 -3,-2 0,0 -1,0 -2,0 -2,0 -3,0 -4,0 -2,1 -3,2 -4,3 -1,0 -2,1 -2,3 -1,1 -2,2 -2,3 -1,2 -1,3 -1,4 -1,2 -1,3 -1,5 3,-1 6,-1 9,-2 2,0 4,-1 6,-2 2,-1 3,-2 4,-3 1,-1 2,-2 2,-4z"/>
   <path id="54" class="fil17 str0" d="M1581 1377c0,2 0,3 1,5 1,1 2,2 3,3 1,0 2,1 4,1 1,1 2,1 4,1 1,0 2,0 3,0 2,-1 3,-1 4,-2 0,-1 1,-1 2,-2 0,-1 0,-2 0,-3 0,-2 0,-3 0,-3 -1,-1 -2,-2 -3,-3 -1,-1 -2,-1 -3,-2 -1,-1 -3,-1 -4,-2 -1,0 -2,-1 -4,-2 -1,0 -2,-1 -3,-1 -1,-1 -2,-2 -3,-3 -1,0 -2,-1 -3,-2 -1,-1 -1,-2 -2,-3 0,-2 0,-3 0,-4 0,-2 0,-3 0,-5 1,-1 2,-2 3,-3 1,-1 2,-2 3,-3 1,-1 3,-1 4,-2 1,0 3,-1 4,-1 2,0 3,0 5,0 2,0 3,0 5,0 2,1 3,1 4,2 1,1 2,2 3,3 1,1 1,2 1,3 0,1 0,1 0,2 0,1 -1,1 -1,2 0,0 -1,1 -2,1 0,0 -1,1 -2,1 -1,0 -2,-1 -3,-1l0 0c0,-1 0,-2 0,-2 0,-1 0,-1 0,-2 0,-1 0,-2 0,-2 -1,-1 -2,-2 -2,-2 -1,-1 -2,-1 -3,-1 -1,0 -2,0 -3,0 -1,0 -3,0 -4,0 -1,1 -2,1 -3,2 -1,1 -2,1 -2,2 -1,1 -1,2 -1,3 0,1 0,2 1,3 1,1 1,2 3,3 1,1 2,2 3,2 2,1 3,2 5,3 2,0 3,1 5,2 2,1 3,2 5,3 1,1 2,2 3,4 1,1 1,3 1,5 0,2 0,4 -1,6 -1,2 -3,3 -5,4 -1,2 -3,3 -6,3 -2,1 -4,1 -7,1 -1,0 -2,0 -3,0 -2,0 -3,-1 -4,-1 -1,0 -2,-1 -4,-1 -1,-1 -2,-1 -2,-2 -1,-1 -2,-1 -2,-2 -1,-1 -1,-2 -1,-3 0,-1 0,-2 1,-2 0,-1 0,-1 1,-2 1,0 1,0 2,-1 1,0 2,0 2,0l1 0z"/>
   <path id="55" class="fil17 str0" d="M1651 1379c0,0 1,0 1,0 0,0 0,1 0,1 1,0 1,0 1,0 0,0 0,1 0,1 0,0 0,0 0,0 -1,2 -3,3 -4,4 -2,2 -3,3 -5,4 -1,1 -3,1 -5,2 -1,0 -3,0 -4,0 -3,0 -6,0 -8,-1 -2,-2 -4,-3 -6,-5 -2,-2 -3,-4 -4,-7 -1,-2 -1,-5 -1,-8 0,-2 0,-5 1,-7 0,-2 1,-5 2,-7 1,-2 2,-4 4,-6 1,-2 3,-3 5,-5 2,-1 4,-2 6,-3 2,-1 4,-1 7,-1 2,0 3,0 5,0 1,1 3,2 4,2 1,1 2,2 3,3 0,2 1,3 1,5 0,2 -1,4 -3,6 -1,1 -3,3 -6,4 -3,1 -6,2 -9,3 -4,1 -8,1 -12,1l0 1c0,3 0,6 1,8 1,2 2,4 3,6 1,2 3,3 5,4 1,1 3,1 5,1 2,0 5,0 7,-1 2,-1 4,-3 6,-5zm-6 -27c0,-1 0,-2 -1,-3 0,-1 -1,-2 -1,-2 -1,-1 -2,-1 -2,-2 -1,0 -2,0 -3,0 -2,0 -3,0 -4,0 -1,1 -3,2 -4,3 -1,0 -1,1 -2,3 -1,1 -1,2 -2,3 0,2 -1,3 -1,4 -1,2 -1,3 -1,5 3,-1 6,-1 9,-2 2,0 5,-1 6,-2 2,-1 4,-2 4,-3 1,-1 2,-2 2,-4z"/>
   <path id="56" class="fil17 str0" d="M1665 1390l0 0c0,-2 0,-4 0,-7 0,-2 0,-5 0,-7 1,-3 1,-5 1,-8 0,-3 0,-5 0,-7 0,-2 0,-4 0,-6 0,-2 0,-3 0,-4 0,-1 0,-2 0,-2 0,-1 0,-1 0,-2 0,0 -1,-1 -1,-1 -1,0 -1,0 -2,0 -1,0 -1,0 -1,0 -1,0 -1,0 -2,0 0,0 -1,0 -1,1 -1,0 -2,0 -3,0l0 -2c4,-2 7,-3 9,-3 3,-1 4,-1 5,-1 1,0 3,0 3,1 1,1 1,2 1,4 0,0 0,1 0,2 0,0 0,1 0,3 0,1 0,2 0,4 -1,1 -1,3 -1,5 0,2 0,4 0,6 0,2 -1,4 -1,6l0 0c2,-5 3,-9 4,-13 2,-3 3,-7 5,-9 2,-3 4,-5 6,-7 2,-2 4,-2 6,-2 1,0 2,0 3,0 1,0 1,1 2,1 0,1 1,1 1,2 0,0 1,1 1,2 0,1 -1,2 -1,3 -1,1 -1,2 -2,2l0 0c-1,0 -2,-1 -3,-1 -1,-1 -2,-1 -3,-1 -1,0 -2,0 -3,1 -1,0 -2,1 -3,1 -1,2 -2,3 -3,5 -1,2 -2,4 -3,6 -1,3 -2,5 -3,8 -1,2 -1,5 -2,7 0,3 -1,5 -1,7 0,2 -1,4 -1,5l-7 1z"/>
   <path id="57" class="fil17 str0" d="M1714 1391c-1,-3 -1,-5 -2,-7 0,-3 0,-5 -1,-7 0,-3 -1,-5 -1,-7 -1,-3 -1,-5 -2,-7 0,-2 -1,-4 -1,-6 -1,-2 -1,-3 -2,-5 0,-1 -1,-2 -1,-3 0,-1 -1,-1 -1,-2 -1,0 -1,-1 -2,-1 0,0 -1,0 -1,0 -1,0 -2,0 -3,0 0,0 -1,0 -3,1l0 -3c1,0 3,-1 4,-1 1,0 2,-1 4,-1 1,0 2,-1 3,-1 0,0 1,0 2,0 0,0 1,0 1,0 1,0 1,1 2,1 0,1 1,2 1,2 1,1 1,2 1,4 1,1 1,2 2,3 0,2 0,3 1,5 0,2 1,4 1,6 1,2 1,4 1,7 1,2 1,4 2,7 0,2 0,4 1,6 1,-1 2,-3 3,-5 1,-1 2,-3 3,-5 2,-2 3,-4 3,-5 1,-2 2,-4 3,-6 1,-2 1,-3 1,-5 1,-2 1,-3 1,-5 0,-2 0,-4 -1,-6 -1,-2 -2,-3 -4,-4l1 -1c0,0 0,0 1,0 0,0 1,0 1,0 3,0 5,0 7,2 2,1 2,3 2,6 0,2 0,4 -1,6 -1,3 -2,5 -3,8 -2,2 -3,5 -5,8 -2,3 -3,5 -5,8 -2,2 -4,5 -5,7 -2,2 -3,4 -5,6l-3 0z"/>
   <path id="58" class="fil17 str0" d="M1781 1379c0,0 0,0 1,0 0,0 0,1 0,1 0,0 0,0 1,0 0,0 0,1 0,1 0,0 0,0 0,0 -2,2 -3,3 -4,4 -2,2 -3,3 -5,4 -2,1 -3,1 -5,2 -2,0 -3,0 -5,0 -3,0 -5,0 -7,-1 -3,-2 -5,-3 -6,-5 -2,-2 -3,-4 -4,-7 -1,-2 -2,-5 -2,-8 0,-2 1,-5 1,-7 1,-2 2,-5 3,-7 1,-2 2,-4 3,-6 2,-2 3,-3 5,-5 2,-1 4,-2 7,-3 2,-1 4,-1 7,-1 1,0 3,0 5,0 1,1 2,2 4,2 1,1 2,2 2,3 1,2 1,3 1,5 0,2 0,4 -2,6 -1,1 -4,3 -6,4 -3,1 -6,2 -10,3 -3,1 -7,1 -11,1l0 1c0,3 0,6 1,8 0,2 1,4 3,6 1,2 3,3 4,4 2,1 4,1 6,1 2,0 4,0 6,-1 3,-1 5,-3 7,-5zm-6 -27c0,-1 -1,-2 -1,-3 0,-1 -1,-2 -1,-2 -1,-1 -2,-1 -3,-2 -1,0 -2,0 -3,0 -1,0 -2,0 -4,0 -1,1 -2,2 -3,3 -1,0 -2,1 -2,3 -1,1 -2,2 -2,3 -1,2 -1,3 -2,4 0,2 0,3 0,5 3,-1 6,-1 9,-2 2,0 4,-1 6,-2 2,-1 3,-2 4,-3 1,-1 2,-2 2,-4z"/>
   <path id="59" class="fil17 str0" d="M1795 1377c0,2 0,3 1,5 1,1 2,2 3,3 1,0 2,1 4,1 1,1 2,1 4,1 1,0 2,0 3,0 1,-1 2,-1 3,-2 1,-1 2,-1 3,-2 0,-1 0,-2 0,-3 0,-2 0,-3 -1,-3 0,-1 -1,-2 -2,-3 -1,-1 -2,-1 -3,-2 -1,-1 -3,-1 -4,-2 -1,0 -3,-1 -4,-2 -1,0 -2,-1 -3,-1 -2,-1 -3,-2 -4,-3 -1,0 -1,-1 -2,-2 -1,-1 -2,-2 -2,-3 0,-2 -1,-3 -1,-4 0,-2 1,-3 1,-5 1,-1 2,-2 2,-3 1,-1 3,-2 4,-3 1,-1 2,-1 4,-2 1,0 3,-1 4,-1 2,0 3,0 5,0 1,0 3,0 5,0 1,1 3,1 4,2 1,1 2,2 3,3 1,1 1,2 1,3 0,1 0,1 0,2 0,1 -1,1 -1,2 -1,0 -1,1 -2,1 -1,0 -1,1 -2,1 -1,0 -2,-1 -3,-1l-1 0c1,-1 1,-2 1,-2 0,-1 0,-1 0,-2 0,-1 0,-2 -1,-2 0,-1 -1,-2 -1,-2 -1,-1 -2,-1 -3,-1 -1,0 -2,0 -3,0 -1,0 -3,0 -4,0 -1,1 -3,1 -3,2 -1,1 -2,1 -3,2 0,1 0,2 0,3 0,1 0,2 1,3 0,1 1,2 2,3 2,1 3,2 4,2 2,1 3,2 5,3 1,0 3,1 5,2 2,1 3,2 5,3 1,1 2,2 3,4 1,1 1,3 1,5 0,2 0,4 -1,6 -2,2 -3,3 -5,4 -1,2 -3,3 -6,3 -2,1 -4,1 -7,1 -1,0 -2,0 -3,0 -2,0 -3,-1 -4,-1 -1,0 -3,-1 -4,-1 -1,-1 -2,-1 -3,-2 0,-1 -1,-1 -1,-2 -1,-1 -1,-2 -1,-3 0,-1 0,-2 0,-2 1,-1 1,-1 2,-2 0,0 1,0 2,-1 1,0 2,0 2,0l1 0z"/>
  </g>
 </g>
</svg>
